<mxfile host="app.diagrams.net" modified="2023-05-15T07:33:33.424Z" agent="Mozilla/5.0 (Windows NT 10.0; Win64; x64) AppleWebKit/537.36 (KHTML, like Gecko) Chrome/113.0.0.0 Safari/537.36" etag="OgFvs7MtGLKv61-WVm_o" version="21.3.0" type="device">
  <diagram name="Page-1" id="577dzrq01GHuV14vuhuw">
    <mxGraphModel dx="2477" dy="2637" grid="1" gridSize="10" guides="1" tooltips="1" connect="1" arrows="1" fold="1" page="1" pageScale="1" pageWidth="850" pageHeight="1100" math="0" shadow="0">
      <root>
        <mxCell id="0" />
        <mxCell id="1" parent="0" />
        <mxCell id="EWLhzB0Xh-R49ub4O3O7-41" value="" style="group;fontFamily=Courier New;" parent="1" vertex="1" connectable="0">
          <mxGeometry x="210" y="60" width="390" height="180" as="geometry" />
        </mxCell>
        <mxCell id="EWLhzB0Xh-R49ub4O3O7-3" value="CUSTOMER" style="whiteSpace=wrap;html=1;align=center;movable=1;resizable=1;rotatable=1;deletable=1;editable=1;locked=0;connectable=1;fontFamily=Courier New;fillColor=#dae8fc;strokeColor=#6c8ebf;" parent="EWLhzB0Xh-R49ub4O3O7-41" vertex="1">
          <mxGeometry x="140" y="60" width="100" height="40" as="geometry" />
        </mxCell>
        <mxCell id="EWLhzB0Xh-R49ub4O3O7-25" value="Customer_Name" style="ellipse;whiteSpace=wrap;html=1;align=center;movable=1;resizable=1;rotatable=1;deletable=1;editable=1;locked=0;connectable=1;fontFamily=Courier New;fillColor=#fff2cc;strokeColor=#d6b656;" parent="EWLhzB0Xh-R49ub4O3O7-41" vertex="1">
          <mxGeometry x="110" y="120" width="110" height="50" as="geometry" />
        </mxCell>
        <mxCell id="EWLhzB0Xh-R49ub4O3O7-26" value="Address" style="ellipse;whiteSpace=wrap;html=1;align=center;movable=1;resizable=1;rotatable=1;deletable=1;editable=1;locked=0;connectable=1;fontFamily=Courier New;fillColor=#fff2cc;strokeColor=#d6b656;" parent="EWLhzB0Xh-R49ub4O3O7-41" vertex="1">
          <mxGeometry x="40" width="100" height="40" as="geometry" />
        </mxCell>
        <mxCell id="EWLhzB0Xh-R49ub4O3O7-34" value="" style="endArrow=none;html=1;rounded=0;exitX=0.5;exitY=0;exitDx=0;exitDy=0;entryX=0.25;entryY=1;entryDx=0;entryDy=0;movable=1;resizable=1;rotatable=1;deletable=1;editable=1;locked=0;connectable=1;fontFamily=Courier New;" parent="EWLhzB0Xh-R49ub4O3O7-41" source="EWLhzB0Xh-R49ub4O3O7-25" target="EWLhzB0Xh-R49ub4O3O7-3" edge="1">
          <mxGeometry relative="1" as="geometry">
            <mxPoint x="150" y="190" as="sourcePoint" />
            <mxPoint x="310" y="190" as="targetPoint" />
          </mxGeometry>
        </mxCell>
        <mxCell id="EWLhzB0Xh-R49ub4O3O7-35" value="" style="endArrow=none;html=1;rounded=0;exitX=0.613;exitY=0.976;exitDx=0;exitDy=0;entryX=0.153;entryY=0.007;entryDx=0;entryDy=0;movable=1;resizable=1;rotatable=1;deletable=1;editable=1;locked=0;connectable=1;fontFamily=Courier New;entryPerimeter=0;exitPerimeter=0;" parent="EWLhzB0Xh-R49ub4O3O7-41" source="EWLhzB0Xh-R49ub4O3O7-26" target="EWLhzB0Xh-R49ub4O3O7-3" edge="1">
          <mxGeometry relative="1" as="geometry">
            <mxPoint x="150" y="190" as="sourcePoint" />
            <mxPoint x="310" y="190" as="targetPoint" />
          </mxGeometry>
        </mxCell>
        <mxCell id="EWLhzB0Xh-R49ub4O3O7-72" value="" style="group;fontFamily=Courier New;" parent="1" vertex="1" connectable="0">
          <mxGeometry x="1250" y="600" width="370" height="170" as="geometry" />
        </mxCell>
        <mxCell id="EWLhzB0Xh-R49ub4O3O7-6" value="SUPPLIER" style="whiteSpace=wrap;html=1;align=center;fontFamily=Courier New;fillColor=#dae8fc;strokeColor=#6c8ebf;" parent="EWLhzB0Xh-R49ub4O3O7-72" vertex="1">
          <mxGeometry x="120" y="70" width="100" height="40" as="geometry" />
        </mxCell>
        <mxCell id="EWLhzB0Xh-R49ub4O3O7-60" value="Email_address" style="ellipse;whiteSpace=wrap;html=1;align=center;fontFamily=Courier New;fillColor=#fff2cc;strokeColor=#d6b656;" parent="EWLhzB0Xh-R49ub4O3O7-72" vertex="1">
          <mxGeometry x="130" width="115" height="40" as="geometry" />
        </mxCell>
        <mxCell id="EWLhzB0Xh-R49ub4O3O7-61" value="Supplier_Name" style="ellipse;whiteSpace=wrap;html=1;align=center;fontFamily=Courier New;fillColor=#fff2cc;strokeColor=#d6b656;" parent="EWLhzB0Xh-R49ub4O3O7-72" vertex="1">
          <mxGeometry x="270" y="70" width="125" height="40" as="geometry" />
        </mxCell>
        <mxCell id="EWLhzB0Xh-R49ub4O3O7-63" value="Supplier_ID" style="ellipse;whiteSpace=wrap;html=1;align=center;fontStyle=4;fontFamily=Courier New;fillColor=#FFD966;" parent="EWLhzB0Xh-R49ub4O3O7-72" vertex="1">
          <mxGeometry x="20" y="10" width="100" height="40" as="geometry" />
        </mxCell>
        <mxCell id="EWLhzB0Xh-R49ub4O3O7-64" value="Contact_No" style="ellipse;whiteSpace=wrap;html=1;align=center;fontFamily=Courier New;fillColor=#fff2cc;strokeColor=#d6b656;" parent="EWLhzB0Xh-R49ub4O3O7-72" vertex="1">
          <mxGeometry x="50" y="130" width="100" height="40" as="geometry" />
        </mxCell>
        <mxCell id="EWLhzB0Xh-R49ub4O3O7-65" value="Address" style="ellipse;whiteSpace=wrap;html=1;align=center;fontFamily=Courier New;fillColor=#fff2cc;strokeColor=#d6b656;" parent="EWLhzB0Xh-R49ub4O3O7-72" vertex="1">
          <mxGeometry x="180" y="130" width="100" height="40" as="geometry" />
        </mxCell>
        <mxCell id="EWLhzB0Xh-R49ub4O3O7-66" value="" style="endArrow=none;html=1;rounded=0;entryX=0.797;entryY=0.953;entryDx=0;entryDy=0;entryPerimeter=0;exitX=0.117;exitY=0.033;exitDx=0;exitDy=0;exitPerimeter=0;fontFamily=Courier New;" parent="EWLhzB0Xh-R49ub4O3O7-72" source="EWLhzB0Xh-R49ub4O3O7-6" target="EWLhzB0Xh-R49ub4O3O7-63" edge="1">
          <mxGeometry relative="1" as="geometry">
            <mxPoint x="140" y="110" as="sourcePoint" />
            <mxPoint x="300" y="110" as="targetPoint" />
          </mxGeometry>
        </mxCell>
        <mxCell id="EWLhzB0Xh-R49ub4O3O7-67" value="" style="endArrow=none;html=1;rounded=0;exitX=0.586;exitY=0.019;exitDx=0;exitDy=0;exitPerimeter=0;fontFamily=Courier New;" parent="EWLhzB0Xh-R49ub4O3O7-72" source="EWLhzB0Xh-R49ub4O3O7-6" target="EWLhzB0Xh-R49ub4O3O7-60" edge="1">
          <mxGeometry relative="1" as="geometry">
            <mxPoint x="140" y="110" as="sourcePoint" />
            <mxPoint x="170" y="50" as="targetPoint" />
          </mxGeometry>
        </mxCell>
        <mxCell id="EWLhzB0Xh-R49ub4O3O7-68" value="" style="endArrow=none;html=1;rounded=0;exitX=1;exitY=0.5;exitDx=0;exitDy=0;entryX=0;entryY=0.5;entryDx=0;entryDy=0;fontFamily=Courier New;" parent="EWLhzB0Xh-R49ub4O3O7-72" source="EWLhzB0Xh-R49ub4O3O7-6" target="EWLhzB0Xh-R49ub4O3O7-61" edge="1">
          <mxGeometry relative="1" as="geometry">
            <mxPoint x="140" y="110" as="sourcePoint" />
            <mxPoint x="300" y="110" as="targetPoint" />
          </mxGeometry>
        </mxCell>
        <mxCell id="EWLhzB0Xh-R49ub4O3O7-70" value="" style="endArrow=none;html=1;rounded=0;exitX=0.5;exitY=0;exitDx=0;exitDy=0;entryX=0.25;entryY=1;entryDx=0;entryDy=0;fontFamily=Courier New;" parent="EWLhzB0Xh-R49ub4O3O7-72" source="EWLhzB0Xh-R49ub4O3O7-64" target="EWLhzB0Xh-R49ub4O3O7-6" edge="1">
          <mxGeometry relative="1" as="geometry">
            <mxPoint x="140" y="110" as="sourcePoint" />
            <mxPoint x="300" y="110" as="targetPoint" />
          </mxGeometry>
        </mxCell>
        <mxCell id="EWLhzB0Xh-R49ub4O3O7-71" value="" style="endArrow=none;html=1;rounded=0;entryX=0.5;entryY=0;entryDx=0;entryDy=0;exitX=0.75;exitY=1;exitDx=0;exitDy=0;fontFamily=Courier New;" parent="EWLhzB0Xh-R49ub4O3O7-72" source="EWLhzB0Xh-R49ub4O3O7-6" target="EWLhzB0Xh-R49ub4O3O7-65" edge="1">
          <mxGeometry relative="1" as="geometry">
            <mxPoint x="140" y="110" as="sourcePoint" />
            <mxPoint x="300" y="110" as="targetPoint" />
          </mxGeometry>
        </mxCell>
        <mxCell id="EWLhzB0Xh-R49ub4O3O7-85" value="" style="group;fontFamily=Courier New;" parent="1" vertex="1" connectable="0">
          <mxGeometry x="520" y="560" width="190" height="100" as="geometry" />
        </mxCell>
        <mxCell id="EWLhzB0Xh-R49ub4O3O7-9" value="BOOK_INSTANCE" style="shape=ext;margin=3;double=1;whiteSpace=wrap;html=1;align=center;fontFamily=Courier New;fillColor=#99CCFF;strokeColor=#6c8ebf;" parent="EWLhzB0Xh-R49ub4O3O7-85" vertex="1">
          <mxGeometry y="60" width="120" height="40" as="geometry" />
        </mxCell>
        <mxCell id="EWLhzB0Xh-R49ub4O3O7-102" value="Quantity" style="ellipse;whiteSpace=wrap;html=1;align=center;fontFamily=Courier New;fillColor=#fff2cc;strokeColor=#d6b656;" parent="EWLhzB0Xh-R49ub4O3O7-85" vertex="1">
          <mxGeometry x="90" y="-10" width="100" height="40" as="geometry" />
        </mxCell>
        <mxCell id="EWLhzB0Xh-R49ub4O3O7-184" value="" style="endArrow=none;html=1;rounded=0;entryX=0.39;entryY=1.008;entryDx=0;entryDy=0;exitX=0.642;exitY=0.05;exitDx=0;exitDy=0;entryPerimeter=0;exitPerimeter=0;fontFamily=Courier New;" parent="EWLhzB0Xh-R49ub4O3O7-85" source="EWLhzB0Xh-R49ub4O3O7-9" target="EWLhzB0Xh-R49ub4O3O7-102" edge="1">
          <mxGeometry relative="1" as="geometry">
            <mxPoint x="-30" y="110" as="sourcePoint" />
            <mxPoint x="130" y="110" as="targetPoint" />
          </mxGeometry>
        </mxCell>
        <mxCell id="EWLhzB0Xh-R49ub4O3O7-97" value="" style="group;fontFamily=Courier New;" parent="1" vertex="1" connectable="0">
          <mxGeometry x="1010" y="800" width="280" height="180" as="geometry" />
        </mxCell>
        <mxCell id="EWLhzB0Xh-R49ub4O3O7-10" value="PUBLISHER" style="whiteSpace=wrap;html=1;align=center;fontFamily=Courier New;fillColor=#dae8fc;strokeColor=#6c8ebf;" parent="EWLhzB0Xh-R49ub4O3O7-97" vertex="1">
          <mxGeometry x="90" y="60" width="100" height="40" as="geometry" />
        </mxCell>
        <mxCell id="EWLhzB0Xh-R49ub4O3O7-87" value="Publisher_ID" style="ellipse;whiteSpace=wrap;html=1;align=center;fontStyle=4;fontFamily=Courier New;fillColor=#FFD966;" parent="EWLhzB0Xh-R49ub4O3O7-97" vertex="1">
          <mxGeometry x="60" y="-20" width="100" height="40" as="geometry" />
        </mxCell>
        <mxCell id="EWLhzB0Xh-R49ub4O3O7-89" value="Publisher_Name" style="ellipse;whiteSpace=wrap;html=1;align=center;fontFamily=Courier New;fillColor=#fff2cc;strokeColor=#d6b656;" parent="EWLhzB0Xh-R49ub4O3O7-97" vertex="1">
          <mxGeometry x="-20" y="110" width="120" height="40" as="geometry" />
        </mxCell>
        <mxCell id="EWLhzB0Xh-R49ub4O3O7-90" value="Email_address" style="ellipse;whiteSpace=wrap;html=1;align=center;fontFamily=Courier New;fillColor=#fff2cc;strokeColor=#d6b656;" parent="EWLhzB0Xh-R49ub4O3O7-97" vertex="1">
          <mxGeometry x="90" y="140" width="100" height="40" as="geometry" />
        </mxCell>
        <mxCell id="EWLhzB0Xh-R49ub4O3O7-91" value="Website" style="ellipse;whiteSpace=wrap;html=1;align=center;fontFamily=Courier New;fillColor=#fff2cc;strokeColor=#d6b656;" parent="EWLhzB0Xh-R49ub4O3O7-97" vertex="1">
          <mxGeometry x="180" y="110" width="100" height="40" as="geometry" />
        </mxCell>
        <mxCell id="EWLhzB0Xh-R49ub4O3O7-92" value="" style="endArrow=none;html=1;rounded=0;exitX=0.5;exitY=1;exitDx=0;exitDy=0;entryX=0.25;entryY=0;entryDx=0;entryDy=0;fontFamily=Courier New;" parent="EWLhzB0Xh-R49ub4O3O7-97" source="EWLhzB0Xh-R49ub4O3O7-87" target="EWLhzB0Xh-R49ub4O3O7-10" edge="1">
          <mxGeometry relative="1" as="geometry">
            <mxPoint x="90" y="80" as="sourcePoint" />
            <mxPoint x="250" y="80" as="targetPoint" />
          </mxGeometry>
        </mxCell>
        <mxCell id="EWLhzB0Xh-R49ub4O3O7-94" value="" style="endArrow=none;html=1;rounded=0;exitX=0.5;exitY=0;exitDx=0;exitDy=0;entryX=0;entryY=1;entryDx=0;entryDy=0;fontFamily=Courier New;" parent="EWLhzB0Xh-R49ub4O3O7-97" source="EWLhzB0Xh-R49ub4O3O7-89" target="EWLhzB0Xh-R49ub4O3O7-10" edge="1">
          <mxGeometry relative="1" as="geometry">
            <mxPoint x="90" y="80" as="sourcePoint" />
            <mxPoint x="250" y="80" as="targetPoint" />
          </mxGeometry>
        </mxCell>
        <mxCell id="EWLhzB0Xh-R49ub4O3O7-95" value="" style="endArrow=none;html=1;rounded=0;entryX=0.5;entryY=0;entryDx=0;entryDy=0;exitX=1;exitY=1;exitDx=0;exitDy=0;fontFamily=Courier New;" parent="EWLhzB0Xh-R49ub4O3O7-97" source="EWLhzB0Xh-R49ub4O3O7-10" target="EWLhzB0Xh-R49ub4O3O7-91" edge="1">
          <mxGeometry relative="1" as="geometry">
            <mxPoint x="90" y="80" as="sourcePoint" />
            <mxPoint x="250" y="80" as="targetPoint" />
          </mxGeometry>
        </mxCell>
        <mxCell id="EWLhzB0Xh-R49ub4O3O7-96" value="" style="endArrow=none;html=1;rounded=0;exitX=0.5;exitY=0;exitDx=0;exitDy=0;entryX=0.5;entryY=1;entryDx=0;entryDy=0;fontFamily=Courier New;" parent="EWLhzB0Xh-R49ub4O3O7-97" source="EWLhzB0Xh-R49ub4O3O7-90" target="EWLhzB0Xh-R49ub4O3O7-10" edge="1">
          <mxGeometry relative="1" as="geometry">
            <mxPoint x="90" y="80" as="sourcePoint" />
            <mxPoint x="250" y="80" as="targetPoint" />
          </mxGeometry>
        </mxCell>
        <mxCell id="EWLhzB0Xh-R49ub4O3O7-113" value="" style="group;fontFamily=Courier New;" parent="1" vertex="1" connectable="0">
          <mxGeometry x="20" y="850" width="240" height="170" as="geometry" />
        </mxCell>
        <mxCell id="EWLhzB0Xh-R49ub4O3O7-11" value="AUTHOR" style="whiteSpace=wrap;html=1;align=center;fontFamily=Courier New;fillColor=#dae8fc;strokeColor=#6c8ebf;" parent="EWLhzB0Xh-R49ub4O3O7-113" vertex="1">
          <mxGeometry x="80" y="60" width="100" height="40" as="geometry" />
        </mxCell>
        <mxCell id="EWLhzB0Xh-R49ub4O3O7-107" value="Author_ID" style="ellipse;whiteSpace=wrap;html=1;align=center;fontStyle=4;fontFamily=Courier New;fillColor=#FFD966;" parent="EWLhzB0Xh-R49ub4O3O7-113" vertex="1">
          <mxGeometry width="100" height="40" as="geometry" />
        </mxCell>
        <mxCell id="EWLhzB0Xh-R49ub4O3O7-108" value="" style="endArrow=none;html=1;rounded=0;exitX=1;exitY=1;exitDx=0;exitDy=0;entryX=0.25;entryY=0;entryDx=0;entryDy=0;fontFamily=Courier New;" parent="EWLhzB0Xh-R49ub4O3O7-113" source="EWLhzB0Xh-R49ub4O3O7-107" target="EWLhzB0Xh-R49ub4O3O7-11" edge="1">
          <mxGeometry relative="1" as="geometry">
            <mxPoint x="90" y="70" as="sourcePoint" />
            <mxPoint x="250" y="70" as="targetPoint" />
          </mxGeometry>
        </mxCell>
        <mxCell id="EWLhzB0Xh-R49ub4O3O7-109" value="Author_Name" style="ellipse;whiteSpace=wrap;html=1;align=center;fontFamily=Courier New;fillColor=#fff2cc;strokeColor=#d6b656;" parent="EWLhzB0Xh-R49ub4O3O7-113" vertex="1">
          <mxGeometry x="140" width="100" height="40" as="geometry" />
        </mxCell>
        <mxCell id="EWLhzB0Xh-R49ub4O3O7-110" value="" style="endArrow=none;html=1;rounded=0;exitX=0.75;exitY=0;exitDx=0;exitDy=0;entryX=0.5;entryY=1;entryDx=0;entryDy=0;fontFamily=Courier New;" parent="EWLhzB0Xh-R49ub4O3O7-113" source="EWLhzB0Xh-R49ub4O3O7-11" target="EWLhzB0Xh-R49ub4O3O7-109" edge="1">
          <mxGeometry relative="1" as="geometry">
            <mxPoint x="90" y="70" as="sourcePoint" />
            <mxPoint x="250" y="70" as="targetPoint" />
          </mxGeometry>
        </mxCell>
        <mxCell id="EWLhzB0Xh-R49ub4O3O7-111" value="Email_address" style="ellipse;whiteSpace=wrap;html=1;align=center;fontFamily=Courier New;fillColor=#fff2cc;strokeColor=#d6b656;" parent="EWLhzB0Xh-R49ub4O3O7-113" vertex="1">
          <mxGeometry x="80" y="130" width="100" height="40" as="geometry" />
        </mxCell>
        <mxCell id="EWLhzB0Xh-R49ub4O3O7-112" value="" style="endArrow=none;html=1;rounded=0;exitX=0.5;exitY=0;exitDx=0;exitDy=0;entryX=0.5;entryY=1;entryDx=0;entryDy=0;fontFamily=Courier New;" parent="EWLhzB0Xh-R49ub4O3O7-113" source="EWLhzB0Xh-R49ub4O3O7-111" target="EWLhzB0Xh-R49ub4O3O7-11" edge="1">
          <mxGeometry relative="1" as="geometry">
            <mxPoint x="90" y="70" as="sourcePoint" />
            <mxPoint x="250" y="70" as="targetPoint" />
          </mxGeometry>
        </mxCell>
        <mxCell id="EWLhzB0Xh-R49ub4O3O7-148" value="" style="group;fontFamily=Courier New;" parent="1" vertex="1" connectable="0">
          <mxGeometry x="590" y="200" width="300" height="180" as="geometry" />
        </mxCell>
        <mxCell id="EWLhzB0Xh-R49ub4O3O7-141" value="TRACKING_&lt;br style=&quot;border-color: var(--border-color);&quot;&gt;DETAILS" style="shape=ext;margin=3;double=1;whiteSpace=wrap;html=1;align=center;fontFamily=Courier New;fillColor=#99CCFF;strokeColor=#6c8ebf;" parent="EWLhzB0Xh-R49ub4O3O7-148" vertex="1">
          <mxGeometry x="80" y="60" width="100" height="50" as="geometry" />
        </mxCell>
        <mxCell id="EWLhzB0Xh-R49ub4O3O7-142" value="Courier_Name" style="ellipse;whiteSpace=wrap;html=1;align=center;fontFamily=Courier New;fillColor=#fff2cc;strokeColor=#d6b656;" parent="EWLhzB0Xh-R49ub4O3O7-148" vertex="1">
          <mxGeometry width="100" height="40" as="geometry" />
        </mxCell>
        <mxCell id="EWLhzB0Xh-R49ub4O3O7-145" value="" style="endArrow=none;html=1;rounded=0;exitX=0.5;exitY=1;exitDx=0;exitDy=0;entryX=0;entryY=0;entryDx=0;entryDy=0;fontFamily=Courier New;" parent="EWLhzB0Xh-R49ub4O3O7-148" source="EWLhzB0Xh-R49ub4O3O7-142" target="EWLhzB0Xh-R49ub4O3O7-141" edge="1">
          <mxGeometry relative="1" as="geometry">
            <mxPoint x="50" y="70" as="sourcePoint" />
            <mxPoint x="210" y="70" as="targetPoint" />
          </mxGeometry>
        </mxCell>
        <mxCell id="EWLhzB0Xh-R49ub4O3O7-239" value="&lt;span style=&quot;border-bottom: 1px dotted&quot;&gt;Tracking_ID&lt;/span&gt;" style="ellipse;whiteSpace=wrap;html=1;align=center;fontFamily=Courier New;fillColor=#FFE599;strokeColor=#d6b656;" parent="EWLhzB0Xh-R49ub4O3O7-148" vertex="1">
          <mxGeometry x="200" y="120" width="100" height="40" as="geometry" />
        </mxCell>
        <mxCell id="EWLhzB0Xh-R49ub4O3O7-240" value="" style="endArrow=none;html=1;rounded=0;entryX=0;entryY=0;entryDx=0;entryDy=0;exitX=1;exitY=0.75;exitDx=0;exitDy=0;fontFamily=Courier New;" parent="EWLhzB0Xh-R49ub4O3O7-148" source="EWLhzB0Xh-R49ub4O3O7-141" target="EWLhzB0Xh-R49ub4O3O7-239" edge="1">
          <mxGeometry relative="1" as="geometry">
            <mxPoint x="-170" y="210" as="sourcePoint" />
            <mxPoint x="-10" y="210" as="targetPoint" />
          </mxGeometry>
        </mxCell>
        <mxCell id="TUBy7_PKRpJQWW35FWpC-7" value="N" style="text;html=1;strokeColor=none;fillColor=none;align=center;verticalAlign=middle;whiteSpace=wrap;rounded=0;fontFamily=Courier New;" parent="EWLhzB0Xh-R49ub4O3O7-148" vertex="1">
          <mxGeometry x="20" y="100" width="60" height="30" as="geometry" />
        </mxCell>
        <mxCell id="TUBy7_PKRpJQWW35FWpC-8" value="Update_Time" style="ellipse;whiteSpace=wrap;html=1;align=center;fontFamily=Courier New;fillColor=#fff2cc;strokeColor=#d6b656;" parent="EWLhzB0Xh-R49ub4O3O7-148" vertex="1">
          <mxGeometry x="200" width="100" height="40" as="geometry" />
        </mxCell>
        <mxCell id="TUBy7_PKRpJQWW35FWpC-11" value="" style="endArrow=none;html=1;rounded=0;exitX=1;exitY=0;exitDx=0;exitDy=0;entryX=0.106;entryY=0.754;entryDx=0;entryDy=0;entryPerimeter=0;fontFamily=Courier New;" parent="EWLhzB0Xh-R49ub4O3O7-148" source="EWLhzB0Xh-R49ub4O3O7-141" target="TUBy7_PKRpJQWW35FWpC-8" edge="1">
          <mxGeometry relative="1" as="geometry">
            <mxPoint x="-20" y="180" as="sourcePoint" />
            <mxPoint x="140" y="180" as="targetPoint" />
          </mxGeometry>
        </mxCell>
        <mxCell id="TUBy7_PKRpJQWW35FWpC-12" value="Description" style="ellipse;whiteSpace=wrap;html=1;align=center;fontFamily=Courier New;fillColor=#fff2cc;strokeColor=#d6b656;" parent="EWLhzB0Xh-R49ub4O3O7-148" vertex="1">
          <mxGeometry x="80" y="140" width="100" height="40" as="geometry" />
        </mxCell>
        <mxCell id="TUBy7_PKRpJQWW35FWpC-13" value="" style="endArrow=none;html=1;rounded=0;exitX=0.5;exitY=1;exitDx=0;exitDy=0;entryX=0.5;entryY=0;entryDx=0;entryDy=0;fontFamily=Courier New;" parent="EWLhzB0Xh-R49ub4O3O7-148" source="EWLhzB0Xh-R49ub4O3O7-141" target="TUBy7_PKRpJQWW35FWpC-12" edge="1">
          <mxGeometry relative="1" as="geometry">
            <mxPoint x="-20" y="180" as="sourcePoint" />
            <mxPoint x="140" y="180" as="targetPoint" />
          </mxGeometry>
        </mxCell>
        <mxCell id="EWLhzB0Xh-R49ub4O3O7-129" value="" style="group;fontFamily=Courier New;" parent="1" vertex="1" connectable="0">
          <mxGeometry x="140" y="310" width="450" height="170" as="geometry" />
        </mxCell>
        <mxCell id="EWLhzB0Xh-R49ub4O3O7-13" value="ORDERS" style="whiteSpace=wrap;html=1;align=center;fontFamily=Courier New;fillColor=#dae8fc;strokeColor=#6c8ebf;" parent="EWLhzB0Xh-R49ub4O3O7-129" vertex="1">
          <mxGeometry x="140" y="70" width="100" height="40" as="geometry" />
        </mxCell>
        <mxCell id="EWLhzB0Xh-R49ub4O3O7-115" value="Order_ID" style="ellipse;whiteSpace=wrap;html=1;align=center;fontStyle=4;fontFamily=Courier New;fillColor=#FFD966;strokeColor=#d6b656;" parent="EWLhzB0Xh-R49ub4O3O7-129" vertex="1">
          <mxGeometry x="10" y="80" width="100" height="40" as="geometry" />
        </mxCell>
        <mxCell id="EWLhzB0Xh-R49ub4O3O7-116" value="Order_status" style="ellipse;whiteSpace=wrap;html=1;align=center;fontFamily=Courier New;fillColor=#fff2cc;strokeColor=#d6b656;" parent="EWLhzB0Xh-R49ub4O3O7-129" vertex="1">
          <mxGeometry x="140" width="100" height="40" as="geometry" />
        </mxCell>
        <mxCell id="EWLhzB0Xh-R49ub4O3O7-120" value="Order_date" style="ellipse;whiteSpace=wrap;html=1;align=center;fontFamily=Courier New;fillColor=#fff2cc;strokeColor=#d6b656;" parent="EWLhzB0Xh-R49ub4O3O7-129" vertex="1">
          <mxGeometry x="175" y="140" width="100" height="40" as="geometry" />
        </mxCell>
        <mxCell id="EWLhzB0Xh-R49ub4O3O7-121" value="Invoice_no" style="ellipse;whiteSpace=wrap;html=1;align=center;fontFamily=Courier New;fillColor=#fff2cc;strokeColor=#d6b656;" parent="EWLhzB0Xh-R49ub4O3O7-129" vertex="1">
          <mxGeometry x="280" y="65" width="100" height="40" as="geometry" />
        </mxCell>
        <mxCell id="EWLhzB0Xh-R49ub4O3O7-124" value="" style="endArrow=none;html=1;rounded=0;exitX=0.5;exitY=0;exitDx=0;exitDy=0;entryX=0.5;entryY=1;entryDx=0;entryDy=0;fontFamily=Courier New;" parent="EWLhzB0Xh-R49ub4O3O7-129" source="EWLhzB0Xh-R49ub4O3O7-13" target="EWLhzB0Xh-R49ub4O3O7-116" edge="1">
          <mxGeometry relative="1" as="geometry">
            <mxPoint x="140" y="100" as="sourcePoint" />
            <mxPoint x="300" y="100" as="targetPoint" />
          </mxGeometry>
        </mxCell>
        <mxCell id="EWLhzB0Xh-R49ub4O3O7-126" value="" style="endArrow=none;html=1;rounded=0;exitX=1.016;exitY=0.4;exitDx=0;exitDy=0;exitPerimeter=0;entryX=0;entryY=0.5;entryDx=0;entryDy=0;fontFamily=Courier New;" parent="EWLhzB0Xh-R49ub4O3O7-129" source="EWLhzB0Xh-R49ub4O3O7-13" target="EWLhzB0Xh-R49ub4O3O7-121" edge="1">
          <mxGeometry relative="1" as="geometry">
            <mxPoint x="140" y="100" as="sourcePoint" />
            <mxPoint x="300" y="100" as="targetPoint" />
          </mxGeometry>
        </mxCell>
        <mxCell id="EWLhzB0Xh-R49ub4O3O7-128" value="" style="endArrow=none;html=1;rounded=0;exitX=0.75;exitY=1;exitDx=0;exitDy=0;entryX=0.5;entryY=0;entryDx=0;entryDy=0;fontFamily=Courier New;" parent="EWLhzB0Xh-R49ub4O3O7-129" source="EWLhzB0Xh-R49ub4O3O7-13" target="EWLhzB0Xh-R49ub4O3O7-120" edge="1">
          <mxGeometry relative="1" as="geometry">
            <mxPoint x="140" y="100" as="sourcePoint" />
            <mxPoint x="300" y="100" as="targetPoint" />
          </mxGeometry>
        </mxCell>
        <mxCell id="EWLhzB0Xh-R49ub4O3O7-176" value="" style="endArrow=none;html=1;rounded=0;exitX=1;exitY=0.5;exitDx=0;exitDy=0;fontFamily=Courier New;" parent="EWLhzB0Xh-R49ub4O3O7-129" source="EWLhzB0Xh-R49ub4O3O7-115" edge="1">
          <mxGeometry relative="1" as="geometry">
            <mxPoint y="100" as="sourcePoint" />
            <mxPoint x="140" y="100" as="targetPoint" />
          </mxGeometry>
        </mxCell>
        <mxCell id="EWLhzB0Xh-R49ub4O3O7-179" value="Has" style="shape=rhombus;double=1;perimeter=rhombusPerimeter;whiteSpace=wrap;html=1;align=center;fontFamily=Courier New;fillColor=#f8cecc;strokeColor=#b85450;" parent="EWLhzB0Xh-R49ub4O3O7-129" vertex="1">
          <mxGeometry x="330" y="-20" width="120" height="60" as="geometry" />
        </mxCell>
        <mxCell id="EWLhzB0Xh-R49ub4O3O7-237" value="" style="shape=link;html=1;rounded=0;exitX=0.932;exitY=0.019;exitDx=0;exitDy=0;exitPerimeter=0;entryX=0;entryY=0.5;entryDx=0;entryDy=0;fontFamily=Courier New;" parent="EWLhzB0Xh-R49ub4O3O7-129" source="EWLhzB0Xh-R49ub4O3O7-13" target="EWLhzB0Xh-R49ub4O3O7-179" edge="1">
          <mxGeometry relative="1" as="geometry">
            <mxPoint x="210" y="30" as="sourcePoint" />
            <mxPoint x="370" y="30" as="targetPoint" />
          </mxGeometry>
        </mxCell>
        <mxCell id="EWLhzB0Xh-R49ub4O3O7-238" value="1" style="resizable=0;html=1;whiteSpace=wrap;align=right;verticalAlign=bottom;fontFamily=Courier New;" parent="EWLhzB0Xh-R49ub4O3O7-237" connectable="0" vertex="1">
          <mxGeometry x="1" relative="1" as="geometry">
            <mxPoint x="-20" y="40" as="offset" />
          </mxGeometry>
        </mxCell>
        <mxCell id="EWLhzB0Xh-R49ub4O3O7-152" value="Orders_Books" style="shape=rhombus;perimeter=rhombusPerimeter;whiteSpace=wrap;html=1;align=center;fontFamily=Courier New;fillColor=#f8cecc;strokeColor=#b85450;" parent="1" vertex="1">
          <mxGeometry x="90" y="230" width="120" height="60" as="geometry" />
        </mxCell>
        <mxCell id="EWLhzB0Xh-R49ub4O3O7-155" value="" style="endArrow=none;html=1;rounded=0;exitX=0.678;exitY=0.871;exitDx=0;exitDy=0;fontFamily=Courier New;exitPerimeter=0;" parent="1" source="EWLhzB0Xh-R49ub4O3O7-152" edge="1">
          <mxGeometry relative="1" as="geometry">
            <mxPoint x="-60" y="520" as="sourcePoint" />
            <mxPoint x="280" y="380" as="targetPoint" />
          </mxGeometry>
        </mxCell>
        <mxCell id="EWLhzB0Xh-R49ub4O3O7-156" value="N" style="resizable=0;html=1;whiteSpace=wrap;align=right;verticalAlign=bottom;fontFamily=Courier New;" parent="EWLhzB0Xh-R49ub4O3O7-155" connectable="0" vertex="1">
          <mxGeometry x="1" relative="1" as="geometry">
            <mxPoint x="-50" y="-50" as="offset" />
          </mxGeometry>
        </mxCell>
        <mxCell id="EWLhzB0Xh-R49ub4O3O7-180" value="" style="shape=link;html=1;rounded=0;exitX=1;exitY=0.5;exitDx=0;exitDy=0;entryX=0;entryY=0.5;entryDx=0;entryDy=0;fontFamily=Courier New;" parent="1" source="EWLhzB0Xh-R49ub4O3O7-179" target="EWLhzB0Xh-R49ub4O3O7-141" edge="1">
          <mxGeometry relative="1" as="geometry">
            <mxPoint x="460" y="360" as="sourcePoint" />
            <mxPoint x="620" y="360" as="targetPoint" />
          </mxGeometry>
        </mxCell>
        <mxCell id="EWLhzB0Xh-R49ub4O3O7-192" value="Has" style="shape=rhombus;double=1;perimeter=rhombusPerimeter;whiteSpace=wrap;html=1;align=center;fontFamily=Courier New;fillColor=#f8cecc;strokeColor=#b85450;" parent="1" vertex="1">
          <mxGeometry x="550" y="710" width="120" height="60" as="geometry" />
        </mxCell>
        <mxCell id="EWLhzB0Xh-R49ub4O3O7-193" value="" style="shape=link;html=1;rounded=0;exitX=0.5;exitY=0;exitDx=0;exitDy=0;entryX=0.5;entryY=1;entryDx=0;entryDy=0;fontFamily=Courier New;" parent="1" source="EWLhzB0Xh-R49ub4O3O7-192" target="EWLhzB0Xh-R49ub4O3O7-9" edge="1">
          <mxGeometry relative="1" as="geometry">
            <mxPoint x="480" y="620" as="sourcePoint" />
            <mxPoint x="640" y="620" as="targetPoint" />
          </mxGeometry>
        </mxCell>
        <mxCell id="EWLhzB0Xh-R49ub4O3O7-194" value="N" style="resizable=0;html=1;whiteSpace=wrap;align=right;verticalAlign=bottom;fontFamily=Courier New;" parent="EWLhzB0Xh-R49ub4O3O7-193" connectable="0" vertex="1">
          <mxGeometry x="1" relative="1" as="geometry">
            <mxPoint y="40" as="offset" />
          </mxGeometry>
        </mxCell>
        <mxCell id="EWLhzB0Xh-R49ub4O3O7-195" value="" style="endArrow=none;html=1;rounded=0;exitX=0.158;exitY=0.018;exitDx=0;exitDy=0;entryX=0.5;entryY=1;entryDx=0;entryDy=0;exitPerimeter=0;fontFamily=Courier New;" parent="1" source="EWLhzB0Xh-R49ub4O3O7-4" target="EWLhzB0Xh-R49ub4O3O7-192" edge="1">
          <mxGeometry relative="1" as="geometry">
            <mxPoint x="680" y="720" as="sourcePoint" />
            <mxPoint x="840" y="720" as="targetPoint" />
          </mxGeometry>
        </mxCell>
        <mxCell id="EWLhzB0Xh-R49ub4O3O7-196" value="1" style="resizable=0;html=1;whiteSpace=wrap;align=right;verticalAlign=bottom;fontFamily=Courier New;" parent="EWLhzB0Xh-R49ub4O3O7-195" connectable="0" vertex="1">
          <mxGeometry x="1" relative="1" as="geometry">
            <mxPoint x="-5" y="50" as="offset" />
          </mxGeometry>
        </mxCell>
        <mxCell id="EWLhzB0Xh-R49ub4O3O7-204" value="" style="group;fontFamily=Courier New;" parent="1" vertex="1" connectable="0">
          <mxGeometry x="850" y="580" width="290" height="150" as="geometry" />
        </mxCell>
        <mxCell id="EWLhzB0Xh-R49ub4O3O7-7" value="WAREHOUSE" style="whiteSpace=wrap;html=1;align=center;fontFamily=Courier New;fillColor=#dae8fc;strokeColor=#6c8ebf;" parent="EWLhzB0Xh-R49ub4O3O7-204" vertex="1">
          <mxGeometry x="100" y="50" width="100" height="40" as="geometry" />
        </mxCell>
        <mxCell id="EWLhzB0Xh-R49ub4O3O7-73" value="Warehouse_ID" style="ellipse;whiteSpace=wrap;html=1;align=center;fontStyle=4;fontFamily=Courier New;fillColor=#FFD966;" parent="EWLhzB0Xh-R49ub4O3O7-204" vertex="1">
          <mxGeometry x="-20" y="110" width="100" height="40" as="geometry" />
        </mxCell>
        <mxCell id="EWLhzB0Xh-R49ub4O3O7-74" value="Address" style="ellipse;whiteSpace=wrap;html=1;align=center;fontFamily=Courier New;fillColor=#fff2cc;strokeColor=#d6b656;" parent="EWLhzB0Xh-R49ub4O3O7-204" vertex="1">
          <mxGeometry x="190" width="100" height="40" as="geometry" />
        </mxCell>
        <mxCell id="EWLhzB0Xh-R49ub4O3O7-75" value="Warehouse_Name" style="ellipse;whiteSpace=wrap;html=1;align=center;fontFamily=Courier New;fillColor=#fff2cc;strokeColor=#d6b656;" parent="EWLhzB0Xh-R49ub4O3O7-204" vertex="1">
          <mxGeometry x="185" y="110" width="110" height="40" as="geometry" />
        </mxCell>
        <mxCell id="EWLhzB0Xh-R49ub4O3O7-77" value="" style="endArrow=none;html=1;rounded=0;exitX=0.5;exitY=0;exitDx=0;exitDy=0;entryX=0;entryY=1;entryDx=0;entryDy=0;fontFamily=Courier New;" parent="EWLhzB0Xh-R49ub4O3O7-204" source="EWLhzB0Xh-R49ub4O3O7-73" target="EWLhzB0Xh-R49ub4O3O7-7" edge="1">
          <mxGeometry relative="1" as="geometry">
            <mxPoint x="130" y="90" as="sourcePoint" />
            <mxPoint x="290" y="90" as="targetPoint" />
          </mxGeometry>
        </mxCell>
        <mxCell id="EWLhzB0Xh-R49ub4O3O7-78" value="" style="endArrow=none;html=1;rounded=0;exitX=1;exitY=0;exitDx=0;exitDy=0;entryX=0.5;entryY=1;entryDx=0;entryDy=0;fontFamily=Courier New;" parent="EWLhzB0Xh-R49ub4O3O7-204" source="EWLhzB0Xh-R49ub4O3O7-7" target="EWLhzB0Xh-R49ub4O3O7-74" edge="1">
          <mxGeometry relative="1" as="geometry">
            <mxPoint x="130" y="90" as="sourcePoint" />
            <mxPoint x="290" y="90" as="targetPoint" />
          </mxGeometry>
        </mxCell>
        <mxCell id="EWLhzB0Xh-R49ub4O3O7-79" value="" style="endArrow=none;html=1;rounded=0;exitX=0.5;exitY=0;exitDx=0;exitDy=0;entryX=1;entryY=1;entryDx=0;entryDy=0;fontFamily=Courier New;" parent="EWLhzB0Xh-R49ub4O3O7-204" source="EWLhzB0Xh-R49ub4O3O7-75" target="EWLhzB0Xh-R49ub4O3O7-7" edge="1">
          <mxGeometry relative="1" as="geometry">
            <mxPoint x="130" y="90" as="sourcePoint" />
            <mxPoint x="290" y="90" as="targetPoint" />
          </mxGeometry>
        </mxCell>
        <mxCell id="EWLhzB0Xh-R49ub4O3O7-205" value="Writes" style="shape=rhombus;perimeter=rhombusPerimeter;whiteSpace=wrap;html=1;align=center;fontFamily=Courier New;fillColor=#f8cecc;strokeColor=#b85450;" parent="1" vertex="1">
          <mxGeometry x="300" y="900" width="120" height="60" as="geometry" />
        </mxCell>
        <mxCell id="EWLhzB0Xh-R49ub4O3O7-206" value="" style="endArrow=none;html=1;rounded=0;exitX=1;exitY=0.5;exitDx=0;exitDy=0;entryX=0;entryY=0.5;entryDx=0;entryDy=0;fontFamily=Courier New;" parent="1" source="EWLhzB0Xh-R49ub4O3O7-11" target="EWLhzB0Xh-R49ub4O3O7-205" edge="1">
          <mxGeometry relative="1" as="geometry">
            <mxPoint x="400" y="820" as="sourcePoint" />
            <mxPoint x="560" y="820" as="targetPoint" />
          </mxGeometry>
        </mxCell>
        <mxCell id="EWLhzB0Xh-R49ub4O3O7-207" value="1" style="resizable=0;html=1;whiteSpace=wrap;align=right;verticalAlign=bottom;fontFamily=Courier New;" parent="EWLhzB0Xh-R49ub4O3O7-206" connectable="0" vertex="1">
          <mxGeometry x="1" relative="1" as="geometry">
            <mxPoint x="-40" as="offset" />
          </mxGeometry>
        </mxCell>
        <mxCell id="EWLhzB0Xh-R49ub4O3O7-209" value="" style="endArrow=none;html=1;rounded=0;exitX=1;exitY=0.5;exitDx=0;exitDy=0;entryX=0;entryY=0.75;entryDx=0;entryDy=0;fontFamily=Courier New;" parent="1" source="EWLhzB0Xh-R49ub4O3O7-205" target="EWLhzB0Xh-R49ub4O3O7-4" edge="1">
          <mxGeometry relative="1" as="geometry">
            <mxPoint x="400" y="820" as="sourcePoint" />
            <mxPoint x="560" y="820" as="targetPoint" />
          </mxGeometry>
        </mxCell>
        <mxCell id="EWLhzB0Xh-R49ub4O3O7-210" value="N" style="resizable=0;html=1;whiteSpace=wrap;align=right;verticalAlign=bottom;fontFamily=Courier New;" parent="EWLhzB0Xh-R49ub4O3O7-209" connectable="0" vertex="1">
          <mxGeometry x="1" relative="1" as="geometry">
            <mxPoint x="-100" y="30" as="offset" />
          </mxGeometry>
        </mxCell>
        <mxCell id="EWLhzB0Xh-R49ub4O3O7-211" value="Publishes" style="shape=rhombus;perimeter=rhombusPerimeter;whiteSpace=wrap;html=1;align=center;fontFamily=Courier New;fillColor=#f8cecc;strokeColor=#b85450;" parent="1" vertex="1">
          <mxGeometry x="870" y="830" width="120" height="60" as="geometry" />
        </mxCell>
        <mxCell id="EWLhzB0Xh-R49ub4O3O7-212" value="" style="endArrow=none;html=1;rounded=0;exitX=1;exitY=0.5;exitDx=0;exitDy=0;entryX=0;entryY=0.5;entryDx=0;entryDy=0;fontFamily=Courier New;" parent="1" source="EWLhzB0Xh-R49ub4O3O7-211" target="EWLhzB0Xh-R49ub4O3O7-10" edge="1">
          <mxGeometry relative="1" as="geometry">
            <mxPoint x="800" y="860" as="sourcePoint" />
            <mxPoint x="960" y="860" as="targetPoint" />
          </mxGeometry>
        </mxCell>
        <mxCell id="EWLhzB0Xh-R49ub4O3O7-213" value="1" style="resizable=0;html=1;whiteSpace=wrap;align=right;verticalAlign=bottom;fontFamily=Courier New;" parent="EWLhzB0Xh-R49ub4O3O7-212" connectable="0" vertex="1">
          <mxGeometry x="1" relative="1" as="geometry">
            <mxPoint x="-55" y="-10" as="offset" />
          </mxGeometry>
        </mxCell>
        <mxCell id="EWLhzB0Xh-R49ub4O3O7-214" value="" style="endArrow=none;html=1;rounded=0;entryX=1;entryY=0.5;entryDx=0;entryDy=0;exitX=0;exitY=0.5;exitDx=0;exitDy=0;fontFamily=Courier New;" parent="1" source="EWLhzB0Xh-R49ub4O3O7-211" target="EWLhzB0Xh-R49ub4O3O7-4" edge="1">
          <mxGeometry relative="1" as="geometry">
            <mxPoint x="800" y="860" as="sourcePoint" />
            <mxPoint x="960" y="860" as="targetPoint" />
          </mxGeometry>
        </mxCell>
        <mxCell id="EWLhzB0Xh-R49ub4O3O7-215" value="N" style="resizable=0;html=1;whiteSpace=wrap;align=right;verticalAlign=bottom;fontFamily=Courier New;" parent="EWLhzB0Xh-R49ub4O3O7-214" connectable="0" vertex="1">
          <mxGeometry x="1" relative="1" as="geometry">
            <mxPoint x="95" y="-10" as="offset" />
          </mxGeometry>
        </mxCell>
        <mxCell id="EWLhzB0Xh-R49ub4O3O7-216" value="Supplies_To" style="shape=rhombus;perimeter=rhombusPerimeter;whiteSpace=wrap;html=1;align=center;fontFamily=Courier New;fillColor=#f8cecc;strokeColor=#b85450;" parent="1" vertex="1">
          <mxGeometry x="1360" y="800" width="130" height="60" as="geometry" />
        </mxCell>
        <mxCell id="EWLhzB0Xh-R49ub4O3O7-217" value="" style="endArrow=none;html=1;rounded=0;exitX=1;exitY=0.5;exitDx=0;exitDy=0;entryX=0;entryY=0.5;entryDx=0;entryDy=0;fontFamily=Courier New;" parent="1" source="EWLhzB0Xh-R49ub4O3O7-10" target="EWLhzB0Xh-R49ub4O3O7-216" edge="1">
          <mxGeometry relative="1" as="geometry">
            <mxPoint x="980" y="780" as="sourcePoint" />
            <mxPoint x="1140" y="780" as="targetPoint" />
          </mxGeometry>
        </mxCell>
        <mxCell id="EWLhzB0Xh-R49ub4O3O7-218" value="M" style="resizable=0;html=1;whiteSpace=wrap;align=left;verticalAlign=bottom;fontFamily=Courier New;" parent="EWLhzB0Xh-R49ub4O3O7-217" connectable="0" vertex="1">
          <mxGeometry x="-1" relative="1" as="geometry">
            <mxPoint x="60" as="offset" />
          </mxGeometry>
        </mxCell>
        <mxCell id="EWLhzB0Xh-R49ub4O3O7-220" value="" style="endArrow=none;html=1;rounded=0;exitX=0.5;exitY=0;exitDx=0;exitDy=0;entryX=0.5;entryY=1;entryDx=0;entryDy=0;fontFamily=Courier New;" parent="1" source="EWLhzB0Xh-R49ub4O3O7-216" target="EWLhzB0Xh-R49ub4O3O7-6" edge="1">
          <mxGeometry relative="1" as="geometry">
            <mxPoint x="980" y="780" as="sourcePoint" />
            <mxPoint x="1140" y="780" as="targetPoint" />
          </mxGeometry>
        </mxCell>
        <mxCell id="EWLhzB0Xh-R49ub4O3O7-221" value="N" style="resizable=0;html=1;whiteSpace=wrap;align=right;verticalAlign=bottom;fontFamily=Courier New;" parent="EWLhzB0Xh-R49ub4O3O7-220" connectable="0" vertex="1">
          <mxGeometry x="1" relative="1" as="geometry">
            <mxPoint y="80" as="offset" />
          </mxGeometry>
        </mxCell>
        <mxCell id="EWLhzB0Xh-R49ub4O3O7-222" value="Provides_Books" style="shape=rhombus;perimeter=rhombusPerimeter;whiteSpace=wrap;html=1;align=center;fontFamily=Courier New;fillColor=#f8cecc;strokeColor=#b85450;" parent="1" vertex="1">
          <mxGeometry x="1130" y="620" width="130" height="70" as="geometry" />
        </mxCell>
        <mxCell id="EWLhzB0Xh-R49ub4O3O7-223" value="" style="endArrow=none;html=1;rounded=0;exitX=0;exitY=0.5;exitDx=0;exitDy=0;entryX=1;entryY=0.5;entryDx=0;entryDy=0;fontFamily=Courier New;" parent="1" source="EWLhzB0Xh-R49ub4O3O7-6" target="EWLhzB0Xh-R49ub4O3O7-222" edge="1">
          <mxGeometry relative="1" as="geometry">
            <mxPoint x="980" y="780" as="sourcePoint" />
            <mxPoint x="1140" y="780" as="targetPoint" />
          </mxGeometry>
        </mxCell>
        <mxCell id="EWLhzB0Xh-R49ub4O3O7-224" value="M" style="resizable=0;html=1;whiteSpace=wrap;align=left;verticalAlign=bottom;fontFamily=Courier New;" parent="EWLhzB0Xh-R49ub4O3O7-223" connectable="0" vertex="1">
          <mxGeometry x="-1" relative="1" as="geometry">
            <mxPoint x="-60" y="10" as="offset" />
          </mxGeometry>
        </mxCell>
        <mxCell id="EWLhzB0Xh-R49ub4O3O7-226" value="" style="endArrow=none;html=1;rounded=0;exitX=0;exitY=0.5;exitDx=0;exitDy=0;entryX=1;entryY=0.5;entryDx=0;entryDy=0;fontFamily=Courier New;" parent="1" source="EWLhzB0Xh-R49ub4O3O7-222" target="EWLhzB0Xh-R49ub4O3O7-7" edge="1">
          <mxGeometry relative="1" as="geometry">
            <mxPoint x="980" y="780" as="sourcePoint" />
            <mxPoint x="1140" y="780" as="targetPoint" />
          </mxGeometry>
        </mxCell>
        <mxCell id="EWLhzB0Xh-R49ub4O3O7-227" value="N" style="resizable=0;html=1;whiteSpace=wrap;align=right;verticalAlign=bottom;fontFamily=Courier New;" parent="EWLhzB0Xh-R49ub4O3O7-226" connectable="0" vertex="1">
          <mxGeometry x="1" relative="1" as="geometry">
            <mxPoint x="40" y="20" as="offset" />
          </mxGeometry>
        </mxCell>
        <mxCell id="EWLhzB0Xh-R49ub4O3O7-235" value="" style="group;fontFamily=Courier New;" parent="1" vertex="1" connectable="0">
          <mxGeometry x="450" y="760" width="470" height="310" as="geometry" />
        </mxCell>
        <mxCell id="EWLhzB0Xh-R49ub4O3O7-4" value="BOOK" style="whiteSpace=wrap;html=1;align=center;fontFamily=Courier New;fillColor=#dae8fc;strokeColor=#6c8ebf;" parent="EWLhzB0Xh-R49ub4O3O7-235" vertex="1">
          <mxGeometry x="145" y="90" width="100" height="40" as="geometry" />
        </mxCell>
        <mxCell id="EWLhzB0Xh-R49ub4O3O7-39" value="Book_ISBN" style="ellipse;whiteSpace=wrap;html=1;align=center;fontStyle=4;fontFamily=Courier New;fillColor=#FFD966;" parent="EWLhzB0Xh-R49ub4O3O7-235" vertex="1">
          <mxGeometry x="30" y="20" width="100" height="40" as="geometry" />
        </mxCell>
        <mxCell id="EWLhzB0Xh-R49ub4O3O7-40" value="Book_Title" style="ellipse;whiteSpace=wrap;html=1;align=center;fontFamily=Courier New;fillColor=#fff2cc;strokeColor=#d6b656;" parent="EWLhzB0Xh-R49ub4O3O7-235" vertex="1">
          <mxGeometry x="245" y="10" width="100" height="40" as="geometry" />
        </mxCell>
        <mxCell id="EWLhzB0Xh-R49ub4O3O7-45" value="E.O.Q" style="ellipse;whiteSpace=wrap;html=1;align=center;fontFamily=Courier New;fillColor=#fff2cc;strokeColor=#d6b656;" parent="EWLhzB0Xh-R49ub4O3O7-235" vertex="1">
          <mxGeometry x="270" y="170" width="100" height="40" as="geometry" />
        </mxCell>
        <mxCell id="EWLhzB0Xh-R49ub4O3O7-46" value="Edition" style="ellipse;whiteSpace=wrap;html=1;align=center;fontFamily=Courier New;fillColor=#fff2cc;strokeColor=#d6b656;" parent="EWLhzB0Xh-R49ub4O3O7-235" vertex="1">
          <mxGeometry y="80" width="100" height="40" as="geometry" />
        </mxCell>
        <mxCell id="EWLhzB0Xh-R49ub4O3O7-47" value="Price" style="ellipse;whiteSpace=wrap;html=1;align=center;fontFamily=Courier New;fillColor=#fff2cc;strokeColor=#d6b656;" parent="EWLhzB0Xh-R49ub4O3O7-235" vertex="1">
          <mxGeometry x="290" y="120" width="100" height="40" as="geometry" />
        </mxCell>
        <mxCell id="EWLhzB0Xh-R49ub4O3O7-49" value="" style="endArrow=none;html=1;rounded=0;entryX=0.5;entryY=1;entryDx=0;entryDy=0;exitX=0;exitY=0;exitDx=0;exitDy=0;fontFamily=Courier New;" parent="EWLhzB0Xh-R49ub4O3O7-235" source="EWLhzB0Xh-R49ub4O3O7-4" target="EWLhzB0Xh-R49ub4O3O7-39" edge="1">
          <mxGeometry relative="1" as="geometry">
            <mxPoint x="80" y="200" as="sourcePoint" />
            <mxPoint x="100" y="290" as="targetPoint" />
          </mxGeometry>
        </mxCell>
        <mxCell id="EWLhzB0Xh-R49ub4O3O7-50" value="" style="endArrow=none;html=1;rounded=0;exitX=1;exitY=0.5;exitDx=0;exitDy=0;entryX=0;entryY=0.25;entryDx=0;entryDy=0;fontFamily=Courier New;" parent="EWLhzB0Xh-R49ub4O3O7-235" source="EWLhzB0Xh-R49ub4O3O7-46" target="EWLhzB0Xh-R49ub4O3O7-4" edge="1">
          <mxGeometry relative="1" as="geometry">
            <mxPoint x="80" y="200" as="sourcePoint" />
            <mxPoint x="240" y="200" as="targetPoint" />
          </mxGeometry>
        </mxCell>
        <mxCell id="EWLhzB0Xh-R49ub4O3O7-53" value="" style="endArrow=none;html=1;rounded=0;exitX=0.64;exitY=1.017;exitDx=0;exitDy=0;exitPerimeter=0;entryX=0.27;entryY=0.067;entryDx=0;entryDy=0;entryPerimeter=0;fontFamily=Courier New;" parent="EWLhzB0Xh-R49ub4O3O7-235" source="EWLhzB0Xh-R49ub4O3O7-4" target="EWLhzB0Xh-R49ub4O3O7-45" edge="1">
          <mxGeometry relative="1" as="geometry">
            <mxPoint x="80" y="200" as="sourcePoint" />
            <mxPoint x="240" y="200" as="targetPoint" />
          </mxGeometry>
        </mxCell>
        <mxCell id="EWLhzB0Xh-R49ub4O3O7-54" value="" style="endArrow=none;html=1;rounded=0;exitX=1;exitY=1;exitDx=0;exitDy=0;entryX=0;entryY=0.5;entryDx=0;entryDy=0;fontFamily=Courier New;" parent="EWLhzB0Xh-R49ub4O3O7-235" source="EWLhzB0Xh-R49ub4O3O7-4" target="EWLhzB0Xh-R49ub4O3O7-47" edge="1">
          <mxGeometry relative="1" as="geometry">
            <mxPoint x="80" y="200" as="sourcePoint" />
            <mxPoint x="240" y="200" as="targetPoint" />
          </mxGeometry>
        </mxCell>
        <mxCell id="EWLhzB0Xh-R49ub4O3O7-57" value="" style="endArrow=none;html=1;rounded=0;exitX=0.5;exitY=1;exitDx=0;exitDy=0;entryX=1;entryY=0;entryDx=0;entryDy=0;fontFamily=Courier New;" parent="EWLhzB0Xh-R49ub4O3O7-235" source="EWLhzB0Xh-R49ub4O3O7-40" target="EWLhzB0Xh-R49ub4O3O7-4" edge="1">
          <mxGeometry relative="1" as="geometry">
            <mxPoint x="80" y="200" as="sourcePoint" />
            <mxPoint x="240" y="200" as="targetPoint" />
          </mxGeometry>
        </mxCell>
        <mxCell id="TUBy7_PKRpJQWW35FWpC-69" value="In_Language" style="shape=rhombus;perimeter=rhombusPerimeter;whiteSpace=wrap;html=1;align=center;fontFamily=Courier New;fillColor=#f8cecc;strokeColor=#b85450;" parent="EWLhzB0Xh-R49ub4O3O7-235" vertex="1">
          <mxGeometry x="50" y="230" width="120" height="60" as="geometry" />
        </mxCell>
        <mxCell id="TUBy7_PKRpJQWW35FWpC-72" value="" style="endArrow=none;html=1;rounded=0;exitX=0.5;exitY=0;exitDx=0;exitDy=0;entryX=0.194;entryY=0.981;entryDx=0;entryDy=0;entryPerimeter=0;fontFamily=Courier New;" parent="EWLhzB0Xh-R49ub4O3O7-235" source="TUBy7_PKRpJQWW35FWpC-69" target="EWLhzB0Xh-R49ub4O3O7-4" edge="1">
          <mxGeometry relative="1" as="geometry">
            <mxPoint x="140" y="270" as="sourcePoint" />
            <mxPoint x="300" y="270" as="targetPoint" />
          </mxGeometry>
        </mxCell>
        <mxCell id="TUBy7_PKRpJQWW35FWpC-73" value="M" style="resizable=0;html=1;whiteSpace=wrap;align=right;verticalAlign=bottom;fontFamily=Courier New;" parent="TUBy7_PKRpJQWW35FWpC-72" connectable="0" vertex="1">
          <mxGeometry x="1" relative="1" as="geometry">
            <mxPoint x="-54" y="71" as="offset" />
          </mxGeometry>
        </mxCell>
        <mxCell id="TUBy7_PKRpJQWW35FWpC-75" value="In_Binding" style="shape=rhombus;perimeter=rhombusPerimeter;whiteSpace=wrap;html=1;align=center;fontFamily=Courier New;fillColor=#f8cecc;strokeColor=#b85450;" parent="EWLhzB0Xh-R49ub4O3O7-235" vertex="1">
          <mxGeometry x="210" y="230" width="120" height="60" as="geometry" />
        </mxCell>
        <mxCell id="TUBy7_PKRpJQWW35FWpC-79" value="" style="endArrow=none;html=1;rounded=0;exitX=0.5;exitY=1;exitDx=0;exitDy=0;entryX=0.5;entryY=0;entryDx=0;entryDy=0;fontFamily=Courier New;" parent="EWLhzB0Xh-R49ub4O3O7-235" source="EWLhzB0Xh-R49ub4O3O7-4" target="TUBy7_PKRpJQWW35FWpC-75" edge="1">
          <mxGeometry relative="1" as="geometry">
            <mxPoint x="250" y="290" as="sourcePoint" />
            <mxPoint x="410" y="290" as="targetPoint" />
          </mxGeometry>
        </mxCell>
        <mxCell id="TUBy7_PKRpJQWW35FWpC-80" value="M" style="resizable=0;html=1;whiteSpace=wrap;align=right;verticalAlign=bottom;fontFamily=Courier New;" parent="TUBy7_PKRpJQWW35FWpC-79" connectable="0" vertex="1">
          <mxGeometry x="1" relative="1" as="geometry">
            <mxPoint x="-40" y="-30" as="offset" />
          </mxGeometry>
        </mxCell>
        <mxCell id="oP4CImSjk23ZV5jAeNFW-30" value="Copies_in_stock" style="ellipse;whiteSpace=wrap;html=1;align=center;fontFamily=Courier New;fillColor=#fff2cc;strokeColor=#d6b656;" parent="EWLhzB0Xh-R49ub4O3O7-235" vertex="1">
          <mxGeometry x="345" y="30" width="120" height="50" as="geometry" />
        </mxCell>
        <mxCell id="oP4CImSjk23ZV5jAeNFW-31" value="" style="endArrow=none;html=1;rounded=0;exitX=1;exitY=0.25;exitDx=0;exitDy=0;entryX=0;entryY=0.5;entryDx=0;entryDy=0;fontFamily=Courier New;" parent="EWLhzB0Xh-R49ub4O3O7-235" source="EWLhzB0Xh-R49ub4O3O7-4" target="oP4CImSjk23ZV5jAeNFW-30" edge="1">
          <mxGeometry relative="1" as="geometry">
            <mxPoint x="160" y="150" as="sourcePoint" />
            <mxPoint x="320" y="150" as="targetPoint" />
          </mxGeometry>
        </mxCell>
        <mxCell id="EWLhzB0Xh-R49ub4O3O7-241" value="Book_ISBN" style="ellipse;whiteSpace=wrap;html=1;align=center;fontFamily=Courier New;fillColor=#fff2cc;strokeColor=#d6b656;" parent="1" vertex="1">
          <mxGeometry x="1380" y="910" width="100" height="40" as="geometry" />
        </mxCell>
        <mxCell id="EWLhzB0Xh-R49ub4O3O7-242" value="" style="endArrow=none;html=1;rounded=0;exitX=0.441;exitY=-0.034;exitDx=0;exitDy=0;exitPerimeter=0;entryX=0.5;entryY=1;entryDx=0;entryDy=0;fontFamily=Courier New;" parent="1" source="EWLhzB0Xh-R49ub4O3O7-241" target="EWLhzB0Xh-R49ub4O3O7-216" edge="1">
          <mxGeometry relative="1" as="geometry">
            <mxPoint x="1220" y="750" as="sourcePoint" />
            <mxPoint x="1380" y="750" as="targetPoint" />
          </mxGeometry>
        </mxCell>
        <mxCell id="EWLhzB0Xh-R49ub4O3O7-243" value="Amount" style="ellipse;whiteSpace=wrap;html=1;align=center;fontFamily=Courier New;fillColor=#fff2cc;strokeColor=#d6b656;" parent="1" vertex="1">
          <mxGeometry x="1495" y="860" width="100" height="40" as="geometry" />
        </mxCell>
        <mxCell id="EWLhzB0Xh-R49ub4O3O7-244" value="" style="endArrow=none;html=1;rounded=0;exitX=0;exitY=0;exitDx=0;exitDy=0;entryX=1;entryY=1;entryDx=0;entryDy=0;fontFamily=Courier New;" parent="1" source="EWLhzB0Xh-R49ub4O3O7-243" target="EWLhzB0Xh-R49ub4O3O7-216" edge="1">
          <mxGeometry relative="1" as="geometry">
            <mxPoint x="1220" y="750" as="sourcePoint" />
            <mxPoint x="1380" y="750" as="targetPoint" />
          </mxGeometry>
        </mxCell>
        <mxCell id="EWLhzB0Xh-R49ub4O3O7-245" value="Amount" style="ellipse;whiteSpace=wrap;html=1;align=center;fontFamily=Courier New;fillColor=#FFE599;strokeColor=#d6b656;" parent="1" vertex="1">
          <mxGeometry x="1120" y="730" width="100" height="40" as="geometry" />
        </mxCell>
        <mxCell id="EWLhzB0Xh-R49ub4O3O7-246" value="Book_ISBN" style="ellipse;whiteSpace=wrap;html=1;align=center;fontFamily=Courier New;fillColor=#FFE599;strokeColor=#d6b656;" parent="1" vertex="1">
          <mxGeometry x="1140" y="530" width="100" height="40" as="geometry" />
        </mxCell>
        <mxCell id="EWLhzB0Xh-R49ub4O3O7-247" value="" style="endArrow=none;html=1;rounded=0;exitX=0.5;exitY=1;exitDx=0;exitDy=0;entryX=0.5;entryY=0;entryDx=0;entryDy=0;fontFamily=Courier New;" parent="1" source="EWLhzB0Xh-R49ub4O3O7-246" target="EWLhzB0Xh-R49ub4O3O7-222" edge="1">
          <mxGeometry relative="1" as="geometry">
            <mxPoint x="1020" y="760" as="sourcePoint" />
            <mxPoint x="1180" y="760" as="targetPoint" />
          </mxGeometry>
        </mxCell>
        <mxCell id="EWLhzB0Xh-R49ub4O3O7-248" value="" style="endArrow=none;html=1;rounded=0;entryX=0.5;entryY=1;entryDx=0;entryDy=0;exitX=0.5;exitY=0;exitDx=0;exitDy=0;fontFamily=Courier New;" parent="1" source="EWLhzB0Xh-R49ub4O3O7-245" target="EWLhzB0Xh-R49ub4O3O7-222" edge="1">
          <mxGeometry relative="1" as="geometry">
            <mxPoint x="1020" y="760" as="sourcePoint" />
            <mxPoint x="1180" y="760" as="targetPoint" />
          </mxGeometry>
        </mxCell>
        <mxCell id="TUBy7_PKRpJQWW35FWpC-1" value="" style="endArrow=none;html=1;rounded=0;entryX=0.671;entryY=0.15;entryDx=0;entryDy=0;exitX=0.006;exitY=0.892;exitDx=0;exitDy=0;exitPerimeter=0;fontFamily=Courier New;entryPerimeter=0;" parent="1" source="EWLhzB0Xh-R49ub4O3O7-3" target="EWLhzB0Xh-R49ub4O3O7-152" edge="1">
          <mxGeometry relative="1" as="geometry">
            <mxPoint x="400" y="110" as="sourcePoint" />
            <mxPoint x="189.43" y="230" as="targetPoint" />
          </mxGeometry>
        </mxCell>
        <mxCell id="TUBy7_PKRpJQWW35FWpC-2" value="1" style="resizable=0;html=1;whiteSpace=wrap;align=right;verticalAlign=bottom;fontFamily=Courier New;" parent="TUBy7_PKRpJQWW35FWpC-1" connectable="0" vertex="1">
          <mxGeometry x="1" relative="1" as="geometry">
            <mxPoint x="61" y="-30" as="offset" />
          </mxGeometry>
        </mxCell>
        <mxCell id="TUBy7_PKRpJQWW35FWpC-17" value="" style="endArrow=none;html=1;rounded=0;exitX=0.25;exitY=1;exitDx=0;exitDy=0;entryX=0.5;entryY=0;entryDx=0;entryDy=0;fontFamily=Courier New;" parent="1" source="EWLhzB0Xh-R49ub4O3O7-13" target="TUBy7_PKRpJQWW35FWpC-27" edge="1">
          <mxGeometry relative="1" as="geometry">
            <mxPoint x="480" y="510" as="sourcePoint" />
            <mxPoint x="320" y="470" as="targetPoint" />
          </mxGeometry>
        </mxCell>
        <mxCell id="TUBy7_PKRpJQWW35FWpC-18" value="1" style="resizable=0;html=1;whiteSpace=wrap;align=right;verticalAlign=bottom;fontFamily=Courier New;" parent="TUBy7_PKRpJQWW35FWpC-17" connectable="0" vertex="1">
          <mxGeometry x="1" relative="1" as="geometry">
            <mxPoint x="10" y="-30" as="offset" />
          </mxGeometry>
        </mxCell>
        <mxCell id="TUBy7_PKRpJQWW35FWpC-19" value="ORDER_DETAILS" style="shape=ext;margin=3;double=1;whiteSpace=wrap;html=1;align=center;fontFamily=Courier New;fillColor=#99CCFF;strokeColor=#6c8ebf;" parent="1" vertex="1">
          <mxGeometry x="160" y="640" width="130" height="50" as="geometry" />
        </mxCell>
        <mxCell id="TUBy7_PKRpJQWW35FWpC-20" value="&lt;span style=&quot;border-bottom: 1px dotted&quot;&gt;Order_Details_ID&lt;/span&gt;" style="ellipse;whiteSpace=wrap;html=1;align=center;fontFamily=Courier New;fillColor=#FFE599;" parent="1" vertex="1">
          <mxGeometry x="70" y="740" width="140" height="50" as="geometry" />
        </mxCell>
        <mxCell id="TUBy7_PKRpJQWW35FWpC-21" value="" style="endArrow=none;html=1;rounded=0;exitX=0.25;exitY=1;exitDx=0;exitDy=0;entryX=0.5;entryY=0;entryDx=0;entryDy=0;fontFamily=Courier New;" parent="1" source="TUBy7_PKRpJQWW35FWpC-19" target="TUBy7_PKRpJQWW35FWpC-20" edge="1">
          <mxGeometry relative="1" as="geometry">
            <mxPoint x="500" y="710" as="sourcePoint" />
            <mxPoint x="660" y="710" as="targetPoint" />
          </mxGeometry>
        </mxCell>
        <mxCell id="TUBy7_PKRpJQWW35FWpC-22" value="Amount_To_Pay" style="ellipse;whiteSpace=wrap;html=1;align=center;fontFamily=Courier New;fillColor=#fff2cc;strokeColor=#d6b656;" parent="1" vertex="1">
          <mxGeometry x="250" y="745" width="110" height="55" as="geometry" />
        </mxCell>
        <mxCell id="TUBy7_PKRpJQWW35FWpC-23" value="" style="endArrow=none;html=1;rounded=0;exitX=0.589;exitY=1.035;exitDx=0;exitDy=0;exitPerimeter=0;entryX=0.415;entryY=0.076;entryDx=0;entryDy=0;entryPerimeter=0;fontFamily=Courier New;" parent="1" source="TUBy7_PKRpJQWW35FWpC-19" target="TUBy7_PKRpJQWW35FWpC-22" edge="1">
          <mxGeometry relative="1" as="geometry">
            <mxPoint x="500" y="710" as="sourcePoint" />
            <mxPoint x="660" y="710" as="targetPoint" />
          </mxGeometry>
        </mxCell>
        <mxCell id="TUBy7_PKRpJQWW35FWpC-24" value="Discount" style="ellipse;whiteSpace=wrap;html=1;align=center;fontFamily=Courier New;fillColor=#fff2cc;strokeColor=#d6b656;" parent="1" vertex="1">
          <mxGeometry x="30" y="590" width="100" height="40" as="geometry" />
        </mxCell>
        <mxCell id="TUBy7_PKRpJQWW35FWpC-25" value="" style="endArrow=none;html=1;rounded=0;exitX=0.5;exitY=1;exitDx=0;exitDy=0;entryX=0;entryY=0.5;entryDx=0;entryDy=0;fontFamily=Courier New;" parent="1" source="TUBy7_PKRpJQWW35FWpC-24" target="TUBy7_PKRpJQWW35FWpC-19" edge="1">
          <mxGeometry relative="1" as="geometry">
            <mxPoint x="500" y="710" as="sourcePoint" />
            <mxPoint x="660" y="710" as="targetPoint" />
          </mxGeometry>
        </mxCell>
        <mxCell id="TUBy7_PKRpJQWW35FWpC-27" value="Has" style="shape=rhombus;double=1;perimeter=rhombusPerimeter;whiteSpace=wrap;html=1;align=center;fontFamily=Courier New;fillColor=#f8cecc;strokeColor=#b85450;" parent="1" vertex="1">
          <mxGeometry x="200" y="510" width="120" height="60" as="geometry" />
        </mxCell>
        <mxCell id="TUBy7_PKRpJQWW35FWpC-32" value="" style="shape=link;html=1;rounded=0;exitX=0.5;exitY=1;exitDx=0;exitDy=0;entryX=0.552;entryY=-0.045;entryDx=0;entryDy=0;entryPerimeter=0;fontFamily=Courier New;" parent="1" source="TUBy7_PKRpJQWW35FWpC-27" target="TUBy7_PKRpJQWW35FWpC-19" edge="1">
          <mxGeometry relative="1" as="geometry">
            <mxPoint x="300" y="580" as="sourcePoint" />
            <mxPoint x="460" y="580" as="targetPoint" />
          </mxGeometry>
        </mxCell>
        <mxCell id="TUBy7_PKRpJQWW35FWpC-33" value="N" style="resizable=0;html=1;whiteSpace=wrap;align=right;verticalAlign=bottom;fontFamily=Courier New;" parent="TUBy7_PKRpJQWW35FWpC-32" connectable="0" vertex="1">
          <mxGeometry x="1" relative="1" as="geometry">
            <mxPoint x="8" y="-28" as="offset" />
          </mxGeometry>
        </mxCell>
        <mxCell id="TUBy7_PKRpJQWW35FWpC-34" value="Contains" style="shape=rhombus;perimeter=rhombusPerimeter;whiteSpace=wrap;html=1;align=center;fontFamily=Courier New;fillColor=#f8cecc;strokeColor=#b85450;" parent="1" vertex="1">
          <mxGeometry x="340" y="590" width="120" height="60" as="geometry" />
        </mxCell>
        <mxCell id="TUBy7_PKRpJQWW35FWpC-35" value="" style="endArrow=none;html=1;rounded=0;exitX=1;exitY=0;exitDx=0;exitDy=0;entryX=0;entryY=0.5;entryDx=0;entryDy=0;fontFamily=Courier New;" parent="1" source="TUBy7_PKRpJQWW35FWpC-19" target="TUBy7_PKRpJQWW35FWpC-34" edge="1">
          <mxGeometry relative="1" as="geometry">
            <mxPoint x="470" y="570" as="sourcePoint" />
            <mxPoint x="630" y="570" as="targetPoint" />
          </mxGeometry>
        </mxCell>
        <mxCell id="TUBy7_PKRpJQWW35FWpC-36" value="1" style="resizable=0;html=1;whiteSpace=wrap;align=right;verticalAlign=bottom;fontFamily=Courier New;" parent="TUBy7_PKRpJQWW35FWpC-35" connectable="0" vertex="1">
          <mxGeometry x="1" relative="1" as="geometry">
            <mxPoint x="-25" y="30" as="offset" />
          </mxGeometry>
        </mxCell>
        <mxCell id="TUBy7_PKRpJQWW35FWpC-37" value="" style="endArrow=none;html=1;rounded=0;exitX=1;exitY=0.5;exitDx=0;exitDy=0;entryX=0;entryY=0.5;entryDx=0;entryDy=0;fontFamily=Courier New;" parent="1" source="TUBy7_PKRpJQWW35FWpC-34" target="EWLhzB0Xh-R49ub4O3O7-9" edge="1">
          <mxGeometry relative="1" as="geometry">
            <mxPoint x="470" y="570" as="sourcePoint" />
            <mxPoint x="630" y="570" as="targetPoint" />
          </mxGeometry>
        </mxCell>
        <mxCell id="TUBy7_PKRpJQWW35FWpC-38" value="N" style="resizable=0;html=1;whiteSpace=wrap;align=right;verticalAlign=bottom;fontFamily=Courier New;" parent="TUBy7_PKRpJQWW35FWpC-37" connectable="0" vertex="1">
          <mxGeometry x="1" relative="1" as="geometry">
            <mxPoint x="-40" y="10" as="offset" />
          </mxGeometry>
        </mxCell>
        <mxCell id="TUBy7_PKRpJQWW35FWpC-48" value="" style="endArrow=none;html=1;rounded=0;exitX=0.5;exitY=1;exitDx=0;exitDy=0;entryX=0.5;entryY=0;entryDx=0;entryDy=0;fontFamily=Courier New;" parent="1" source="TUBy7_PKRpJQWW35FWpC-42" target="TUBy7_PKRpJQWW35FWpC-50" edge="1">
          <mxGeometry relative="1" as="geometry">
            <mxPoint x="640" y="1070" as="sourcePoint" />
            <mxPoint x="530" y="1120" as="targetPoint" />
          </mxGeometry>
        </mxCell>
        <mxCell id="TUBy7_PKRpJQWW35FWpC-49" value="M" style="resizable=0;html=1;whiteSpace=wrap;align=right;verticalAlign=bottom;fontFamily=Courier New;" parent="TUBy7_PKRpJQWW35FWpC-48" connectable="0" vertex="1">
          <mxGeometry x="1" relative="1" as="geometry">
            <mxPoint x="60" y="-40" as="offset" />
          </mxGeometry>
        </mxCell>
        <mxCell id="TUBy7_PKRpJQWW35FWpC-50" value="Category" style="whiteSpace=wrap;html=1;align=center;fontFamily=Courier New;fillColor=#dae8fc;strokeColor=#6c8ebf;" parent="1" vertex="1">
          <mxGeometry x="240" y="1100.08" width="100" height="40" as="geometry" />
        </mxCell>
        <mxCell id="TUBy7_PKRpJQWW35FWpC-52" value="Category_ID" style="ellipse;whiteSpace=wrap;html=1;align=center;fontStyle=4;fontFamily=Courier New;fillColor=#FFD966;" parent="1" vertex="1">
          <mxGeometry x="340" y="1170.08" width="100" height="40" as="geometry" />
        </mxCell>
        <mxCell id="TUBy7_PKRpJQWW35FWpC-53" value="" style="endArrow=none;html=1;rounded=0;exitX=1;exitY=1;exitDx=0;exitDy=0;entryX=0.252;entryY=0.015;entryDx=0;entryDy=0;entryPerimeter=0;fontFamily=Courier New;" parent="1" source="TUBy7_PKRpJQWW35FWpC-50" target="TUBy7_PKRpJQWW35FWpC-52" edge="1">
          <mxGeometry relative="1" as="geometry">
            <mxPoint x="370" y="1160.08" as="sourcePoint" />
            <mxPoint x="530" y="1160.08" as="targetPoint" />
          </mxGeometry>
        </mxCell>
        <mxCell id="TUBy7_PKRpJQWW35FWpC-54" value="Name" style="ellipse;whiteSpace=wrap;html=1;align=center;fontFamily=Courier New;fillColor=#fff2cc;strokeColor=#d6b656;" parent="1" vertex="1">
          <mxGeometry x="170" y="1170.08" width="100" height="40" as="geometry" />
        </mxCell>
        <mxCell id="TUBy7_PKRpJQWW35FWpC-55" value="" style="endArrow=none;html=1;rounded=0;exitX=0.548;exitY=-0.006;exitDx=0;exitDy=0;exitPerimeter=0;entryX=0;entryY=1;entryDx=0;entryDy=0;fontFamily=Courier New;" parent="1" source="TUBy7_PKRpJQWW35FWpC-54" target="TUBy7_PKRpJQWW35FWpC-50" edge="1">
          <mxGeometry relative="1" as="geometry">
            <mxPoint x="290" y="1180.08" as="sourcePoint" />
            <mxPoint x="450" y="1180.08" as="targetPoint" />
          </mxGeometry>
        </mxCell>
        <mxCell id="TUBy7_PKRpJQWW35FWpC-56" value="Parent" style="shape=rhombus;perimeter=rhombusPerimeter;whiteSpace=wrap;html=1;align=center;fontFamily=Courier New;fillColor=#f8cecc;strokeColor=#b85450;" parent="1" vertex="1">
          <mxGeometry x="30" y="1090.08" width="120" height="60" as="geometry" />
        </mxCell>
        <mxCell id="TUBy7_PKRpJQWW35FWpC-57" value="" style="endArrow=none;html=1;rounded=0;exitX=-0.021;exitY=0.635;exitDx=0;exitDy=0;entryX=0.5;entryY=1;entryDx=0;entryDy=0;exitPerimeter=0;fontFamily=Courier New;" parent="1" source="TUBy7_PKRpJQWW35FWpC-50" target="TUBy7_PKRpJQWW35FWpC-56" edge="1">
          <mxGeometry relative="1" as="geometry">
            <mxPoint x="330" y="1130.08" as="sourcePoint" />
            <mxPoint x="490" y="1130.08" as="targetPoint" />
          </mxGeometry>
        </mxCell>
        <mxCell id="TUBy7_PKRpJQWW35FWpC-58" value="1" style="resizable=0;html=1;whiteSpace=wrap;align=right;verticalAlign=bottom;fontFamily=Courier New;" parent="TUBy7_PKRpJQWW35FWpC-57" connectable="0" vertex="1">
          <mxGeometry x="1" relative="1" as="geometry">
            <mxPoint x="50" y="10" as="offset" />
          </mxGeometry>
        </mxCell>
        <mxCell id="TUBy7_PKRpJQWW35FWpC-59" value="" style="endArrow=none;html=1;rounded=0;exitX=-0.026;exitY=0.377;exitDx=0;exitDy=0;exitPerimeter=0;entryX=0.5;entryY=0;entryDx=0;entryDy=0;fontFamily=Courier New;" parent="1" source="TUBy7_PKRpJQWW35FWpC-50" target="TUBy7_PKRpJQWW35FWpC-56" edge="1">
          <mxGeometry relative="1" as="geometry">
            <mxPoint x="330" y="1130.08" as="sourcePoint" />
            <mxPoint x="490" y="1130.08" as="targetPoint" />
          </mxGeometry>
        </mxCell>
        <mxCell id="TUBy7_PKRpJQWW35FWpC-60" value="1" style="resizable=0;html=1;whiteSpace=wrap;align=right;verticalAlign=bottom;fontFamily=Courier New;" parent="TUBy7_PKRpJQWW35FWpC-59" connectable="0" vertex="1">
          <mxGeometry x="1" relative="1" as="geometry">
            <mxPoint x="50" y="10" as="offset" />
          </mxGeometry>
        </mxCell>
        <mxCell id="TUBy7_PKRpJQWW35FWpC-42" value="Book_Category" style="shape=rhombus;perimeter=rhombusPerimeter;whiteSpace=wrap;html=1;align=center;fontFamily=Courier New;fillColor=#f8cecc;strokeColor=#b85450;" parent="1" vertex="1">
          <mxGeometry x="370" y="960" width="120" height="60" as="geometry" />
        </mxCell>
        <mxCell id="TUBy7_PKRpJQWW35FWpC-46" value="" style="endArrow=none;html=1;rounded=0;exitX=0.09;exitY=0.975;exitDx=0;exitDy=0;exitPerimeter=0;entryX=0.5;entryY=0;entryDx=0;entryDy=0;fontFamily=Courier New;" parent="1" source="EWLhzB0Xh-R49ub4O3O7-4" target="TUBy7_PKRpJQWW35FWpC-42" edge="1">
          <mxGeometry relative="1" as="geometry">
            <mxPoint x="540" y="950" as="sourcePoint" />
            <mxPoint x="700" y="950" as="targetPoint" />
          </mxGeometry>
        </mxCell>
        <mxCell id="TUBy7_PKRpJQWW35FWpC-47" value="N" style="resizable=0;html=1;whiteSpace=wrap;align=right;verticalAlign=bottom;fontFamily=Courier New;" parent="TUBy7_PKRpJQWW35FWpC-46" connectable="0" vertex="1">
          <mxGeometry x="1" relative="1" as="geometry" />
        </mxCell>
        <mxCell id="EWLhzB0Xh-R49ub4O3O7-81" value="&lt;span style=&quot;border-bottom: 1px dotted&quot;&gt;Copy_Instance&lt;/span&gt;" style="ellipse;whiteSpace=wrap;html=1;align=center;fontFamily=Courier New;fillColor=#FFE599;" parent="1" vertex="1">
          <mxGeometry x="450" y="550" width="110" height="40" as="geometry" />
        </mxCell>
        <mxCell id="EWLhzB0Xh-R49ub4O3O7-84" value="" style="endArrow=none;html=1;rounded=0;entryX=0.5;entryY=1;entryDx=0;entryDy=0;exitX=0.25;exitY=0;exitDx=0;exitDy=0;fontFamily=Courier New;" parent="1" source="EWLhzB0Xh-R49ub4O3O7-9" target="EWLhzB0Xh-R49ub4O3O7-81" edge="1">
          <mxGeometry relative="1" as="geometry">
            <mxPoint x="645" y="610" as="sourcePoint" />
            <mxPoint x="805" y="610" as="targetPoint" />
          </mxGeometry>
        </mxCell>
        <mxCell id="TUBy7_PKRpJQWW35FWpC-64" value="Language" style="whiteSpace=wrap;html=1;align=center;fontFamily=Courier New;fillColor=#dae8fc;strokeColor=#6c8ebf;" parent="1" vertex="1">
          <mxGeometry x="510" y="1100" width="100" height="50" as="geometry" />
        </mxCell>
        <mxCell id="TUBy7_PKRpJQWW35FWpC-65" value="Language_ID" style="ellipse;whiteSpace=wrap;html=1;align=center;fontStyle=4;fontFamily=Courier New;fillColor=#FFD966;" parent="1" vertex="1">
          <mxGeometry x="500" y="1180.52" width="100" height="40" as="geometry" />
        </mxCell>
        <mxCell id="TUBy7_PKRpJQWW35FWpC-66" value="Name" style="ellipse;whiteSpace=wrap;html=1;align=center;fontFamily=Courier New;fillColor=#fff2cc;strokeColor=#d6b656;" parent="1" vertex="1">
          <mxGeometry x="390" y="1090.08" width="100" height="40" as="geometry" />
        </mxCell>
        <mxCell id="TUBy7_PKRpJQWW35FWpC-67" value="" style="endArrow=none;html=1;rounded=0;exitX=0.33;exitY=1.047;exitDx=0;exitDy=0;exitPerimeter=0;entryX=0.5;entryY=0;entryDx=0;entryDy=0;fontFamily=Courier New;" parent="1" source="TUBy7_PKRpJQWW35FWpC-64" target="TUBy7_PKRpJQWW35FWpC-65" edge="1">
          <mxGeometry relative="1" as="geometry">
            <mxPoint x="660" y="1140" as="sourcePoint" />
            <mxPoint x="820" y="1140" as="targetPoint" />
          </mxGeometry>
        </mxCell>
        <mxCell id="TUBy7_PKRpJQWW35FWpC-68" value="" style="endArrow=none;html=1;rounded=0;exitX=0;exitY=0.75;exitDx=0;exitDy=0;entryX=0.766;entryY=0.919;entryDx=0;entryDy=0;entryPerimeter=0;fontFamily=Courier New;" parent="1" source="TUBy7_PKRpJQWW35FWpC-64" target="TUBy7_PKRpJQWW35FWpC-66" edge="1">
          <mxGeometry relative="1" as="geometry">
            <mxPoint x="660" y="1140" as="sourcePoint" />
            <mxPoint x="820" y="1140" as="targetPoint" />
          </mxGeometry>
        </mxCell>
        <mxCell id="TUBy7_PKRpJQWW35FWpC-70" value="" style="endArrow=none;html=1;rounded=0;exitX=0.5;exitY=1;exitDx=0;exitDy=0;entryX=0.5;entryY=0;entryDx=0;entryDy=0;fontFamily=Courier New;" parent="1" source="TUBy7_PKRpJQWW35FWpC-69" target="TUBy7_PKRpJQWW35FWpC-64" edge="1">
          <mxGeometry relative="1" as="geometry">
            <mxPoint x="590" y="1030" as="sourcePoint" />
            <mxPoint x="750" y="1030" as="targetPoint" />
          </mxGeometry>
        </mxCell>
        <mxCell id="TUBy7_PKRpJQWW35FWpC-71" value="N" style="resizable=0;html=1;whiteSpace=wrap;align=right;verticalAlign=bottom;fontFamily=Courier New;" parent="TUBy7_PKRpJQWW35FWpC-70" connectable="0" vertex="1">
          <mxGeometry x="1" relative="1" as="geometry">
            <mxPoint x="-10" y="-10" as="offset" />
          </mxGeometry>
        </mxCell>
        <mxCell id="TUBy7_PKRpJQWW35FWpC-74" value="Binding" style="whiteSpace=wrap;html=1;align=center;fontFamily=Courier New;fillColor=#dae8fc;strokeColor=#6c8ebf;" parent="1" vertex="1">
          <mxGeometry x="690" y="1105.52" width="100" height="40" as="geometry" />
        </mxCell>
        <mxCell id="TUBy7_PKRpJQWW35FWpC-76" value="" style="endArrow=none;html=1;rounded=0;exitX=0.5;exitY=1;exitDx=0;exitDy=0;entryX=0.5;entryY=0;entryDx=0;entryDy=0;fontFamily=Courier New;" parent="1" source="TUBy7_PKRpJQWW35FWpC-75" target="TUBy7_PKRpJQWW35FWpC-74" edge="1">
          <mxGeometry relative="1" as="geometry">
            <mxPoint x="700" y="1050" as="sourcePoint" />
            <mxPoint x="860" y="1050" as="targetPoint" />
          </mxGeometry>
        </mxCell>
        <mxCell id="TUBy7_PKRpJQWW35FWpC-77" value="N" style="resizable=0;html=1;whiteSpace=wrap;align=right;verticalAlign=bottom;fontFamily=Courier New;" parent="TUBy7_PKRpJQWW35FWpC-76" connectable="0" vertex="1">
          <mxGeometry x="1" relative="1" as="geometry">
            <mxPoint x="10" y="-16" as="offset" />
          </mxGeometry>
        </mxCell>
        <mxCell id="TUBy7_PKRpJQWW35FWpC-81" value="Binding_ID" style="ellipse;whiteSpace=wrap;html=1;align=center;fontStyle=4;fontFamily=Courier New;fillColor=#FFD966;" parent="1" vertex="1">
          <mxGeometry x="650" y="1180.52" width="100" height="40" as="geometry" />
        </mxCell>
        <mxCell id="TUBy7_PKRpJQWW35FWpC-82" value="" style="endArrow=none;html=1;rounded=0;exitX=0.25;exitY=1;exitDx=0;exitDy=0;entryX=0.5;entryY=0;entryDx=0;entryDy=0;fontFamily=Courier New;" parent="1" source="TUBy7_PKRpJQWW35FWpC-74" target="TUBy7_PKRpJQWW35FWpC-81" edge="1">
          <mxGeometry relative="1" as="geometry">
            <mxPoint x="750" y="1160.52" as="sourcePoint" />
            <mxPoint x="910" y="1160.52" as="targetPoint" />
          </mxGeometry>
        </mxCell>
        <mxCell id="TUBy7_PKRpJQWW35FWpC-83" value="Description" style="ellipse;whiteSpace=wrap;html=1;align=center;fontFamily=Courier New;fillColor=#fff2cc;strokeColor=#d6b656;" parent="1" vertex="1">
          <mxGeometry x="760" y="1180.52" width="100" height="40" as="geometry" />
        </mxCell>
        <mxCell id="TUBy7_PKRpJQWW35FWpC-85" value="" style="endArrow=none;html=1;rounded=0;exitX=0.825;exitY=1.021;exitDx=0;exitDy=0;exitPerimeter=0;entryX=0.285;entryY=0.072;entryDx=0;entryDy=0;entryPerimeter=0;fontFamily=Courier New;" parent="1" source="TUBy7_PKRpJQWW35FWpC-74" target="TUBy7_PKRpJQWW35FWpC-83" edge="1">
          <mxGeometry relative="1" as="geometry">
            <mxPoint x="750" y="1160.52" as="sourcePoint" />
            <mxPoint x="910" y="1160.52" as="targetPoint" />
          </mxGeometry>
        </mxCell>
        <mxCell id="TUBy7_PKRpJQWW35FWpC-86" value="" style="endArrow=none;html=1;rounded=0;exitX=0.5;exitY=0;exitDx=0;exitDy=0;entryX=0.5;entryY=1;entryDx=0;entryDy=0;fontFamily=Courier New;" parent="1" source="EWLhzB0Xh-R49ub4O3O7-4" target="TUBy7_PKRpJQWW35FWpC-88" edge="1">
          <mxGeometry relative="1" as="geometry">
            <mxPoint x="1000" y="530" as="sourcePoint" />
            <mxPoint x="1070" y="210" as="targetPoint" />
          </mxGeometry>
        </mxCell>
        <mxCell id="TUBy7_PKRpJQWW35FWpC-87" value="N" style="resizable=0;html=1;whiteSpace=wrap;align=right;verticalAlign=bottom;fontFamily=Courier New;" parent="TUBy7_PKRpJQWW35FWpC-86" connectable="0" vertex="1">
          <mxGeometry x="1" relative="1" as="geometry">
            <mxPoint x="-160" y="270" as="offset" />
          </mxGeometry>
        </mxCell>
        <mxCell id="TUBy7_PKRpJQWW35FWpC-88" value="User_Interaction" style="shape=rhombus;perimeter=rhombusPerimeter;whiteSpace=wrap;html=1;align=center;fontFamily=Courier New;fillColor=#f8cecc;strokeColor=#b85450;" parent="1" vertex="1">
          <mxGeometry x="890" y="130" width="180" height="80" as="geometry" />
        </mxCell>
        <mxCell id="TUBy7_PKRpJQWW35FWpC-89" value="" style="endArrow=none;html=1;rounded=0;exitX=1;exitY=0.5;exitDx=0;exitDy=0;entryX=0;entryY=0.5;entryDx=0;entryDy=0;fontFamily=Courier New;" parent="1" source="EWLhzB0Xh-R49ub4O3O7-3" target="TUBy7_PKRpJQWW35FWpC-88" edge="1">
          <mxGeometry relative="1" as="geometry">
            <mxPoint x="1160" y="140" as="sourcePoint" />
            <mxPoint x="1320" y="140" as="targetPoint" />
          </mxGeometry>
        </mxCell>
        <mxCell id="TUBy7_PKRpJQWW35FWpC-90" value="M" style="resizable=0;html=1;whiteSpace=wrap;align=right;verticalAlign=bottom;fontFamily=Courier New;" parent="TUBy7_PKRpJQWW35FWpC-89" connectable="0" vertex="1">
          <mxGeometry x="1" relative="1" as="geometry">
            <mxPoint x="-90" y="-20" as="offset" />
          </mxGeometry>
        </mxCell>
        <mxCell id="TUBy7_PKRpJQWW35FWpC-93" value="" style="endArrow=none;html=1;rounded=0;exitX=1;exitY=0.5;exitDx=0;exitDy=0;entryX=0;entryY=0.5;entryDx=0;entryDy=0;fontFamily=Courier New;" parent="1" source="TUBy7_PKRpJQWW35FWpC-88" target="TUBy7_PKRpJQWW35FWpC-95" edge="1">
          <mxGeometry relative="1" as="geometry">
            <mxPoint x="1060" y="260" as="sourcePoint" />
            <mxPoint x="1330" y="180" as="targetPoint" />
          </mxGeometry>
        </mxCell>
        <mxCell id="TUBy7_PKRpJQWW35FWpC-94" value="M" style="resizable=0;html=1;whiteSpace=wrap;align=right;verticalAlign=bottom;fontFamily=Courier New;" parent="TUBy7_PKRpJQWW35FWpC-93" connectable="0" vertex="1">
          <mxGeometry x="1" relative="1" as="geometry">
            <mxPoint x="-90" as="offset" />
          </mxGeometry>
        </mxCell>
        <mxCell id="TUBy7_PKRpJQWW35FWpC-95" value="Leaves" style="shape=rhombus;perimeter=rhombusPerimeter;whiteSpace=wrap;html=1;align=center;fontFamily=Courier New;fillColor=#f8cecc;strokeColor=#b85450;" parent="1" vertex="1">
          <mxGeometry x="1290" y="150" width="120" height="60" as="geometry" />
        </mxCell>
        <mxCell id="TUBy7_PKRpJQWW35FWpC-96" value="Comments" style="whiteSpace=wrap;html=1;align=center;fontFamily=Courier New;fillColor=#dae8fc;strokeColor=#6c8ebf;" parent="1" vertex="1">
          <mxGeometry x="1550" y="160" width="100" height="40" as="geometry" />
        </mxCell>
        <mxCell id="TUBy7_PKRpJQWW35FWpC-97" value="" style="endArrow=none;html=1;rounded=0;exitX=1;exitY=0.5;exitDx=0;exitDy=0;entryX=0;entryY=0.5;entryDx=0;entryDy=0;fontFamily=Courier New;" parent="1" source="TUBy7_PKRpJQWW35FWpC-95" target="TUBy7_PKRpJQWW35FWpC-96" edge="1">
          <mxGeometry relative="1" as="geometry">
            <mxPoint x="1240" y="210" as="sourcePoint" />
            <mxPoint x="1400" y="210" as="targetPoint" />
          </mxGeometry>
        </mxCell>
        <mxCell id="TUBy7_PKRpJQWW35FWpC-98" value="N" style="resizable=0;html=1;whiteSpace=wrap;align=right;verticalAlign=bottom;fontFamily=Courier New;" parent="TUBy7_PKRpJQWW35FWpC-97" connectable="0" vertex="1">
          <mxGeometry x="1" relative="1" as="geometry">
            <mxPoint x="-40" as="offset" />
          </mxGeometry>
        </mxCell>
        <mxCell id="TUBy7_PKRpJQWW35FWpC-99" value="Comment_ID" style="ellipse;whiteSpace=wrap;html=1;align=center;fontStyle=4;fontFamily=Courier New;fillColor=#FFD966;" parent="1" vertex="1">
          <mxGeometry x="1495" y="80" width="100" height="40" as="geometry" />
        </mxCell>
        <mxCell id="TUBy7_PKRpJQWW35FWpC-100" value="" style="endArrow=none;html=1;rounded=0;exitX=0.5;exitY=1;exitDx=0;exitDy=0;fontFamily=Courier New;" parent="1" source="TUBy7_PKRpJQWW35FWpC-99" edge="1">
          <mxGeometry relative="1" as="geometry">
            <mxPoint x="1460" y="200" as="sourcePoint" />
            <mxPoint x="1580" y="160" as="targetPoint" />
          </mxGeometry>
        </mxCell>
        <mxCell id="TUBy7_PKRpJQWW35FWpC-102" value="Comment_Description" style="ellipse;whiteSpace=wrap;html=1;align=center;fontFamily=Courier New;fillColor=#fff2cc;strokeColor=#d6b656;" parent="1" vertex="1">
          <mxGeometry x="1495" y="250" width="165" height="60" as="geometry" />
        </mxCell>
        <mxCell id="TUBy7_PKRpJQWW35FWpC-103" value="" style="endArrow=none;html=1;rounded=0;exitX=0.5;exitY=0;exitDx=0;exitDy=0;entryX=0.4;entryY=1.047;entryDx=0;entryDy=0;entryPerimeter=0;fontFamily=Courier New;" parent="1" source="TUBy7_PKRpJQWW35FWpC-102" target="TUBy7_PKRpJQWW35FWpC-96" edge="1">
          <mxGeometry relative="1" as="geometry">
            <mxPoint x="1460" y="200" as="sourcePoint" />
            <mxPoint x="1620" y="200" as="targetPoint" />
          </mxGeometry>
        </mxCell>
        <mxCell id="TUBy7_PKRpJQWW35FWpC-104" value="" style="endArrow=none;html=1;rounded=0;exitX=0.5;exitY=0;exitDx=0;exitDy=0;entryX=0.5;entryY=1;entryDx=0;entryDy=0;fontFamily=Courier New;" parent="1" source="TUBy7_PKRpJQWW35FWpC-88" target="TUBy7_PKRpJQWW35FWpC-106" edge="1">
          <mxGeometry relative="1" as="geometry">
            <mxPoint x="970" y="230" as="sourcePoint" />
            <mxPoint x="1110" y="110" as="targetPoint" />
          </mxGeometry>
        </mxCell>
        <mxCell id="TUBy7_PKRpJQWW35FWpC-106" value="Upvote" style="ellipse;whiteSpace=wrap;html=1;align=center;fontFamily=Courier New;fillColor=#fff2cc;strokeColor=#d6b656;" parent="1" vertex="1">
          <mxGeometry x="940" y="40" width="100" height="40" as="geometry" />
        </mxCell>
        <mxCell id="TUBy7_PKRpJQWW35FWpC-107" value="Downvote" style="ellipse;whiteSpace=wrap;html=1;align=center;fontFamily=Courier New;fillColor=#fff2cc;strokeColor=#d6b656;" parent="1" vertex="1">
          <mxGeometry x="1010" y="260" width="100" height="40" as="geometry" />
        </mxCell>
        <mxCell id="TUBy7_PKRpJQWW35FWpC-108" value="" style="endArrow=none;html=1;rounded=0;exitX=0.69;exitY=0.873;exitDx=0;exitDy=0;entryX=0.306;entryY=0.022;entryDx=0;entryDy=0;entryPerimeter=0;fontFamily=Courier New;exitPerimeter=0;" parent="1" source="TUBy7_PKRpJQWW35FWpC-88" target="TUBy7_PKRpJQWW35FWpC-107" edge="1">
          <mxGeometry relative="1" as="geometry">
            <mxPoint x="1100" y="220" as="sourcePoint" />
            <mxPoint x="1260" y="220" as="targetPoint" />
          </mxGeometry>
        </mxCell>
        <mxCell id="TUBy7_PKRpJQWW35FWpC-109" value="Rating" style="ellipse;whiteSpace=wrap;html=1;align=center;fontFamily=Courier New;fillColor=#fff2cc;strokeColor=#d6b656;" parent="1" vertex="1">
          <mxGeometry x="840" y="80" width="100" height="40" as="geometry" />
        </mxCell>
        <mxCell id="TUBy7_PKRpJQWW35FWpC-110" value="" style="endArrow=none;html=1;rounded=0;exitX=0.611;exitY=1.002;exitDx=0;exitDy=0;exitPerimeter=0;entryX=0;entryY=0;entryDx=0;entryDy=0;fontFamily=Courier New;" parent="1" source="TUBy7_PKRpJQWW35FWpC-109" target="TUBy7_PKRpJQWW35FWpC-88" edge="1">
          <mxGeometry relative="1" as="geometry">
            <mxPoint x="950" y="210" as="sourcePoint" />
            <mxPoint x="1110" y="210" as="targetPoint" />
          </mxGeometry>
        </mxCell>
        <mxCell id="TUBy7_PKRpJQWW35FWpC-112" value="User" style="whiteSpace=wrap;html=1;align=center;fontFamily=Courier New;fillColor=#dae8fc;strokeColor=#6c8ebf;" parent="1" vertex="1">
          <mxGeometry x="530" y="-190" width="100" height="40" as="geometry" />
        </mxCell>
        <mxCell id="TUBy7_PKRpJQWW35FWpC-113" value="" style="triangle;whiteSpace=wrap;html=1;rotation=-90;fontFamily=Courier New;fillColor=#d5e8d4;strokeColor=#82b366;" parent="1" vertex="1">
          <mxGeometry x="550" y="-120" width="60" height="80" as="geometry" />
        </mxCell>
        <mxCell id="TUBy7_PKRpJQWW35FWpC-114" value="is A" style="text;html=1;strokeColor=none;fillColor=none;align=center;verticalAlign=middle;whiteSpace=wrap;rounded=0;fontFamily=Courier New;" parent="1" vertex="1">
          <mxGeometry x="550" y="-90" width="60" height="30" as="geometry" />
        </mxCell>
        <mxCell id="TUBy7_PKRpJQWW35FWpC-115" value="" style="endArrow=none;html=1;rounded=0;entryX=0.5;entryY=1;entryDx=0;entryDy=0;exitX=1;exitY=0.5;exitDx=0;exitDy=0;fontFamily=Courier New;" parent="1" source="TUBy7_PKRpJQWW35FWpC-113" target="TUBy7_PKRpJQWW35FWpC-112" edge="1">
          <mxGeometry width="50" height="50" relative="1" as="geometry">
            <mxPoint x="640" y="30" as="sourcePoint" />
            <mxPoint x="690" y="-20" as="targetPoint" />
          </mxGeometry>
        </mxCell>
        <mxCell id="TUBy7_PKRpJQWW35FWpC-116" value="" style="endArrow=none;html=1;rounded=0;exitX=0.579;exitY=0.018;exitDx=0;exitDy=0;exitPerimeter=0;entryX=-0.017;entryY=0.033;entryDx=0;entryDy=0;entryPerimeter=0;fontFamily=Courier New;" parent="1" source="EWLhzB0Xh-R49ub4O3O7-3" target="TUBy7_PKRpJQWW35FWpC-113" edge="1">
          <mxGeometry width="50" height="50" relative="1" as="geometry">
            <mxPoint x="640" y="30" as="sourcePoint" />
            <mxPoint x="690" y="-20" as="targetPoint" />
          </mxGeometry>
        </mxCell>
        <mxCell id="EWLhzB0Xh-R49ub4O3O7-21" value="Email_address" style="ellipse;whiteSpace=wrap;html=1;align=center;movable=1;resizable=1;rotatable=1;deletable=1;editable=1;locked=0;connectable=1;fontFamily=Courier New;fillColor=#fff2cc;strokeColor=#d6b656;" parent="1" vertex="1">
          <mxGeometry x="670" y="-230" width="100" height="40" as="geometry" />
        </mxCell>
        <mxCell id="EWLhzB0Xh-R49ub4O3O7-32" value="" style="endArrow=none;html=1;rounded=0;entryX=0;entryY=0.5;entryDx=0;entryDy=0;movable=1;resizable=1;rotatable=1;deletable=1;editable=1;locked=0;connectable=1;exitX=1;exitY=0;exitDx=0;exitDy=0;fontFamily=Courier New;" parent="1" source="TUBy7_PKRpJQWW35FWpC-112" target="EWLhzB0Xh-R49ub4O3O7-21" edge="1">
          <mxGeometry relative="1" as="geometry">
            <mxPoint x="500" y="70" as="sourcePoint" />
            <mxPoint x="570" y="200" as="targetPoint" />
          </mxGeometry>
        </mxCell>
        <mxCell id="EWLhzB0Xh-R49ub4O3O7-33" value="" style="endArrow=none;html=1;rounded=0;exitX=0.917;exitY=0.774;exitDx=0;exitDy=0;entryX=0;entryY=0;entryDx=0;entryDy=0;movable=1;resizable=1;rotatable=1;deletable=1;editable=1;locked=0;connectable=1;fontFamily=Courier New;exitPerimeter=0;" parent="1" source="TUBy7_PKRpJQWW35FWpC-142" target="TUBy7_PKRpJQWW35FWpC-112" edge="1">
          <mxGeometry relative="1" as="geometry">
            <mxPoint x="480" y="-210" as="sourcePoint" />
            <mxPoint x="570" y="230" as="targetPoint" />
          </mxGeometry>
        </mxCell>
        <mxCell id="TUBy7_PKRpJQWW35FWpC-117" value="Administrator" style="whiteSpace=wrap;html=1;align=center;fontFamily=Courier New;fillColor=#dae8fc;strokeColor=#6c8ebf;" parent="1" vertex="1">
          <mxGeometry x="630" y="20" width="100" height="40" as="geometry" />
        </mxCell>
        <mxCell id="TUBy7_PKRpJQWW35FWpC-118" value="" style="endArrow=none;html=1;rounded=0;exitX=0.043;exitY=0.966;exitDx=0;exitDy=0;exitPerimeter=0;entryX=0.5;entryY=0;entryDx=0;entryDy=0;fontFamily=Courier New;" parent="1" source="TUBy7_PKRpJQWW35FWpC-113" target="TUBy7_PKRpJQWW35FWpC-117" edge="1">
          <mxGeometry relative="1" as="geometry">
            <mxPoint x="620" y="60" as="sourcePoint" />
            <mxPoint x="780" y="60" as="targetPoint" />
          </mxGeometry>
        </mxCell>
        <mxCell id="TUBy7_PKRpJQWW35FWpC-121" value="" style="endArrow=none;html=1;rounded=0;exitX=1;exitY=0;exitDx=0;exitDy=0;entryX=0;entryY=0.5;entryDx=0;entryDy=0;fontFamily=Courier New;" parent="1" source="TUBy7_PKRpJQWW35FWpC-88" target="TUBy7_PKRpJQWW35FWpC-123" edge="1">
          <mxGeometry relative="1" as="geometry">
            <mxPoint x="1180" y="120" as="sourcePoint" />
            <mxPoint x="1330" y="50" as="targetPoint" />
          </mxGeometry>
        </mxCell>
        <mxCell id="TUBy7_PKRpJQWW35FWpC-122" value="M" style="resizable=0;html=1;whiteSpace=wrap;align=right;verticalAlign=bottom;fontFamily=Courier New;" parent="TUBy7_PKRpJQWW35FWpC-121" connectable="0" vertex="1">
          <mxGeometry x="1" relative="1" as="geometry">
            <mxPoint x="-75" y="30" as="offset" />
          </mxGeometry>
        </mxCell>
        <mxCell id="TUBy7_PKRpJQWW35FWpC-123" value="Favourite" style="shape=rhombus;perimeter=rhombusPerimeter;whiteSpace=wrap;html=1;align=center;fontFamily=Courier New;fillColor=#f8cecc;strokeColor=#b85450;" parent="1" vertex="1">
          <mxGeometry x="1275" y="10" width="120" height="60" as="geometry" />
        </mxCell>
        <mxCell id="TUBy7_PKRpJQWW35FWpC-124" value="" style="endArrow=none;html=1;rounded=0;exitX=1;exitY=0.5;exitDx=0;exitDy=0;entryX=0;entryY=0.5;entryDx=0;entryDy=0;fontFamily=Courier New;" parent="1" source="TUBy7_PKRpJQWW35FWpC-123" target="TUBy7_PKRpJQWW35FWpC-126" edge="1">
          <mxGeometry relative="1" as="geometry">
            <mxPoint x="1180" y="120" as="sourcePoint" />
            <mxPoint x="1500" y="-20" as="targetPoint" />
          </mxGeometry>
        </mxCell>
        <mxCell id="TUBy7_PKRpJQWW35FWpC-125" value="N" style="resizable=0;html=1;whiteSpace=wrap;align=right;verticalAlign=bottom;fontFamily=Courier New;" parent="TUBy7_PKRpJQWW35FWpC-124" connectable="0" vertex="1">
          <mxGeometry x="1" relative="1" as="geometry">
            <mxPoint x="-55" y="30" as="offset" />
          </mxGeometry>
        </mxCell>
        <mxCell id="TUBy7_PKRpJQWW35FWpC-126" value="Favourites" style="whiteSpace=wrap;html=1;align=center;fontFamily=Courier New;fillColor=#dae8fc;strokeColor=#6c8ebf;" parent="1" vertex="1">
          <mxGeometry x="1510" y="-50" width="100" height="40" as="geometry" />
        </mxCell>
        <mxCell id="TUBy7_PKRpJQWW35FWpC-127" value="&lt;u&gt;Favourite_ID&lt;/u&gt;" style="ellipse;whiteSpace=wrap;html=1;align=center;fontFamily=Courier New;fillColor=#FFD966;" parent="1" vertex="1">
          <mxGeometry x="1460" y="-130" width="120" height="40" as="geometry" />
        </mxCell>
        <mxCell id="TUBy7_PKRpJQWW35FWpC-130" value="" style="endArrow=none;html=1;rounded=0;exitX=0.5;exitY=1;exitDx=0;exitDy=0;entryX=0.25;entryY=0;entryDx=0;entryDy=0;fontFamily=Courier New;" parent="1" source="TUBy7_PKRpJQWW35FWpC-127" target="TUBy7_PKRpJQWW35FWpC-126" edge="1">
          <mxGeometry relative="1" as="geometry">
            <mxPoint x="1180" y="120" as="sourcePoint" />
            <mxPoint x="1340" y="120" as="targetPoint" />
          </mxGeometry>
        </mxCell>
        <mxCell id="TUBy7_PKRpJQWW35FWpC-131" value="" style="endArrow=none;html=1;rounded=0;exitX=0.87;exitY=0.644;exitDx=0;exitDy=0;exitPerimeter=0;entryX=0.211;entryY=0.221;entryDx=0;entryDy=0;entryPerimeter=0;fontFamily=Courier New;" parent="1" source="TUBy7_PKRpJQWW35FWpC-88" target="TUBy7_PKRpJQWW35FWpC-134" edge="1">
          <mxGeometry relative="1" as="geometry">
            <mxPoint x="1122.46" y="209.99999999999986" as="sourcePoint" />
            <mxPoint x="1290" y="329.6" as="targetPoint" />
          </mxGeometry>
        </mxCell>
        <mxCell id="TUBy7_PKRpJQWW35FWpC-132" value="M" style="resizable=0;html=1;whiteSpace=wrap;align=right;verticalAlign=bottom;fontFamily=Courier New;" parent="TUBy7_PKRpJQWW35FWpC-131" connectable="0" vertex="1">
          <mxGeometry x="1" relative="1" as="geometry">
            <mxPoint x="-45" y="-33" as="offset" />
          </mxGeometry>
        </mxCell>
        <mxCell id="TUBy7_PKRpJQWW35FWpC-134" value="Wishlist" style="shape=rhombus;perimeter=rhombusPerimeter;whiteSpace=wrap;html=1;align=center;fontFamily=Courier New;fillColor=#f8cecc;strokeColor=#b85450;" parent="1" vertex="1">
          <mxGeometry x="1260" y="300" width="120" height="60" as="geometry" />
        </mxCell>
        <mxCell id="TUBy7_PKRpJQWW35FWpC-135" value="" style="endArrow=none;html=1;rounded=0;exitX=1;exitY=1;exitDx=0;exitDy=0;entryX=-0.007;entryY=0.356;entryDx=0;entryDy=0;entryPerimeter=0;fontFamily=Courier New;" parent="1" source="TUBy7_PKRpJQWW35FWpC-134" target="TUBy7_PKRpJQWW35FWpC-137" edge="1">
          <mxGeometry relative="1" as="geometry">
            <mxPoint x="1410" y="400" as="sourcePoint" />
            <mxPoint x="1500" y="430" as="targetPoint" />
          </mxGeometry>
        </mxCell>
        <mxCell id="TUBy7_PKRpJQWW35FWpC-136" value="N" style="resizable=0;html=1;whiteSpace=wrap;align=right;verticalAlign=bottom;fontFamily=Courier New;" parent="TUBy7_PKRpJQWW35FWpC-135" connectable="0" vertex="1">
          <mxGeometry x="1" relative="1" as="geometry">
            <mxPoint x="-70" y="-10" as="offset" />
          </mxGeometry>
        </mxCell>
        <mxCell id="TUBy7_PKRpJQWW35FWpC-137" value="User_Wishlist" style="whiteSpace=wrap;html=1;align=center;fontFamily=Courier New;fillColor=#dae8fc;strokeColor=#6c8ebf;" parent="1" vertex="1">
          <mxGeometry x="1510" y="420" width="100" height="40" as="geometry" />
        </mxCell>
        <mxCell id="TUBy7_PKRpJQWW35FWpC-138" value="Wish_ID" style="ellipse;whiteSpace=wrap;html=1;align=center;fontStyle=4;fontFamily=Courier New;fillColor=#FFD966;" parent="1" vertex="1">
          <mxGeometry x="1490" y="340" width="100" height="40" as="geometry" />
        </mxCell>
        <mxCell id="TUBy7_PKRpJQWW35FWpC-139" value="" style="endArrow=none;html=1;rounded=0;exitX=0.5;exitY=1;exitDx=0;exitDy=0;entryX=0.25;entryY=0;entryDx=0;entryDy=0;fontFamily=Courier New;" parent="1" source="TUBy7_PKRpJQWW35FWpC-138" target="TUBy7_PKRpJQWW35FWpC-137" edge="1">
          <mxGeometry relative="1" as="geometry">
            <mxPoint x="1460" y="380" as="sourcePoint" />
            <mxPoint x="1620" y="380" as="targetPoint" />
          </mxGeometry>
        </mxCell>
        <mxCell id="EWLhzB0Xh-R49ub4O3O7-27" value="" style="endArrow=none;html=1;rounded=0;exitX=0.5;exitY=1;exitDx=0;exitDy=0;entryX=0.5;entryY=0;entryDx=0;entryDy=0;movable=1;resizable=1;rotatable=1;deletable=1;editable=1;locked=0;connectable=1;fontFamily=Courier New;" parent="1" source="EWLhzB0Xh-R49ub4O3O7-19" target="TUBy7_PKRpJQWW35FWpC-112" edge="1">
          <mxGeometry relative="1" as="geometry">
            <mxPoint x="360" y="250" as="sourcePoint" />
            <mxPoint x="520" y="250" as="targetPoint" />
          </mxGeometry>
        </mxCell>
        <mxCell id="EWLhzB0Xh-R49ub4O3O7-19" value="Username" style="ellipse;whiteSpace=wrap;html=1;align=center;fontStyle=4;movable=1;resizable=1;rotatable=1;deletable=1;editable=1;locked=0;connectable=1;fontFamily=Courier New;fillColor=#FFD966;strokeColor=#d6b656;" parent="1" vertex="1">
          <mxGeometry x="530" y="-270" width="100" height="40" as="geometry" />
        </mxCell>
        <mxCell id="TUBy7_PKRpJQWW35FWpC-140" value="Reason" style="ellipse;whiteSpace=wrap;html=1;align=center;fontFamily=Courier New;fillColor=#fff2cc;strokeColor=#d6b656;" parent="1" vertex="1">
          <mxGeometry x="1570" y="20" width="100" height="40" as="geometry" />
        </mxCell>
        <mxCell id="TUBy7_PKRpJQWW35FWpC-141" value="" style="endArrow=none;html=1;rounded=0;exitX=0.454;exitY=1.014;exitDx=0;exitDy=0;exitPerimeter=0;entryX=0;entryY=0;entryDx=0;entryDy=0;fontFamily=Courier New;" parent="1" source="TUBy7_PKRpJQWW35FWpC-126" target="TUBy7_PKRpJQWW35FWpC-140" edge="1">
          <mxGeometry relative="1" as="geometry">
            <mxPoint x="1340" y="80" as="sourcePoint" />
            <mxPoint x="1500" y="80" as="targetPoint" />
          </mxGeometry>
        </mxCell>
        <mxCell id="TUBy7_PKRpJQWW35FWpC-142" value="Contact_No" style="ellipse;shape=doubleEllipse;margin=3;whiteSpace=wrap;html=1;align=center;fontFamily=Courier New;fillColor=#fff2cc;strokeColor=#d6b656;" parent="1" vertex="1">
          <mxGeometry x="380" y="-250" width="100" height="40" as="geometry" />
        </mxCell>
        <mxCell id="TUBy7_PKRpJQWW35FWpC-143" value="Street" style="ellipse;whiteSpace=wrap;html=1;align=center;fontFamily=Courier New;fillColor=#fff2cc;strokeColor=#d6b656;" parent="1" vertex="1">
          <mxGeometry x="310" y="-30" width="100" height="40" as="geometry" />
        </mxCell>
        <mxCell id="TUBy7_PKRpJQWW35FWpC-144" value="" style="endArrow=none;html=1;rounded=0;exitX=0.608;exitY=0.017;exitDx=0;exitDy=0;exitPerimeter=0;entryX=0.384;entryY=0.995;entryDx=0;entryDy=0;entryPerimeter=0;fontFamily=Courier New;" parent="1" source="EWLhzB0Xh-R49ub4O3O7-26" target="TUBy7_PKRpJQWW35FWpC-143" edge="1">
          <mxGeometry relative="1" as="geometry">
            <mxPoint x="280" y="80" as="sourcePoint" />
            <mxPoint x="440" y="80" as="targetPoint" />
          </mxGeometry>
        </mxCell>
        <mxCell id="TUBy7_PKRpJQWW35FWpC-145" value="City" style="ellipse;whiteSpace=wrap;html=1;align=center;fontFamily=Courier New;fillColor=#fff2cc;strokeColor=#d6b656;" parent="1" vertex="1">
          <mxGeometry x="160" y="-30" width="100" height="40" as="geometry" />
        </mxCell>
        <mxCell id="TUBy7_PKRpJQWW35FWpC-146" value="" style="endArrow=none;html=1;rounded=0;exitX=0.525;exitY=1.025;exitDx=0;exitDy=0;exitPerimeter=0;entryX=0.264;entryY=0.09;entryDx=0;entryDy=0;entryPerimeter=0;fontFamily=Courier New;" parent="1" source="TUBy7_PKRpJQWW35FWpC-145" target="EWLhzB0Xh-R49ub4O3O7-26" edge="1">
          <mxGeometry relative="1" as="geometry">
            <mxPoint x="220" y="40" as="sourcePoint" />
            <mxPoint x="380" y="40" as="targetPoint" />
          </mxGeometry>
        </mxCell>
        <mxCell id="TUBy7_PKRpJQWW35FWpC-147" value="State" style="ellipse;whiteSpace=wrap;html=1;align=center;fontFamily=Courier New;fillColor=#fff2cc;strokeColor=#d6b656;" parent="1" vertex="1">
          <mxGeometry x="80" y="50" width="100" height="40" as="geometry" />
        </mxCell>
        <mxCell id="TUBy7_PKRpJQWW35FWpC-148" value="" style="endArrow=none;html=1;rounded=0;exitX=0.996;exitY=0.605;exitDx=0;exitDy=0;exitPerimeter=0;entryX=0.036;entryY=0.296;entryDx=0;entryDy=0;entryPerimeter=0;fontFamily=Courier New;" parent="1" source="TUBy7_PKRpJQWW35FWpC-147" target="EWLhzB0Xh-R49ub4O3O7-26" edge="1">
          <mxGeometry relative="1" as="geometry">
            <mxPoint x="170" y="60" as="sourcePoint" />
            <mxPoint x="330" y="60" as="targetPoint" />
          </mxGeometry>
        </mxCell>
        <mxCell id="TUBy7_PKRpJQWW35FWpC-149" value="First_name" style="ellipse;whiteSpace=wrap;html=1;align=center;fontFamily=Courier New;fillColor=#fff2cc;strokeColor=#d6b656;" parent="1" vertex="1">
          <mxGeometry x="250" y="240" width="100" height="40" as="geometry" />
        </mxCell>
        <mxCell id="TUBy7_PKRpJQWW35FWpC-150" value="Last_name" style="ellipse;whiteSpace=wrap;html=1;align=center;fontFamily=Courier New;fillColor=#fff2cc;strokeColor=#d6b656;" parent="1" vertex="1">
          <mxGeometry x="390" y="240" width="100" height="40" as="geometry" />
        </mxCell>
        <mxCell id="TUBy7_PKRpJQWW35FWpC-151" value="" style="endArrow=none;html=1;rounded=0;exitX=0.5;exitY=0;exitDx=0;exitDy=0;entryX=0;entryY=1;entryDx=0;entryDy=0;fontFamily=Courier New;" parent="1" source="TUBy7_PKRpJQWW35FWpC-149" target="EWLhzB0Xh-R49ub4O3O7-25" edge="1">
          <mxGeometry relative="1" as="geometry">
            <mxPoint x="310" y="210" as="sourcePoint" />
            <mxPoint x="470" y="210" as="targetPoint" />
          </mxGeometry>
        </mxCell>
        <mxCell id="TUBy7_PKRpJQWW35FWpC-152" value="" style="endArrow=none;html=1;rounded=0;exitX=1;exitY=1;exitDx=0;exitDy=0;entryX=0.5;entryY=0;entryDx=0;entryDy=0;fontFamily=Courier New;" parent="1" source="EWLhzB0Xh-R49ub4O3O7-25" target="TUBy7_PKRpJQWW35FWpC-150" edge="1">
          <mxGeometry relative="1" as="geometry">
            <mxPoint x="310" y="210" as="sourcePoint" />
            <mxPoint x="470" y="210" as="targetPoint" />
          </mxGeometry>
        </mxCell>
        <mxCell id="TUBy7_PKRpJQWW35FWpC-153" value="D.O.B" style="ellipse;whiteSpace=wrap;html=1;align=center;fontFamily=Courier New;fillColor=#fff2cc;strokeColor=#d6b656;" parent="1" vertex="1">
          <mxGeometry x="660" y="-140" width="100" height="40" as="geometry" />
        </mxCell>
        <mxCell id="TUBy7_PKRpJQWW35FWpC-154" value="" style="endArrow=none;html=1;rounded=0;exitX=1;exitY=1;exitDx=0;exitDy=0;entryX=0;entryY=0;entryDx=0;entryDy=0;fontFamily=Courier New;" parent="1" source="TUBy7_PKRpJQWW35FWpC-112" target="TUBy7_PKRpJQWW35FWpC-153" edge="1">
          <mxGeometry relative="1" as="geometry">
            <mxPoint x="630" y="-110" as="sourcePoint" />
            <mxPoint x="790" y="-100" as="targetPoint" />
          </mxGeometry>
        </mxCell>
        <mxCell id="TUBy7_PKRpJQWW35FWpC-155" value="Age" style="ellipse;whiteSpace=wrap;html=1;align=center;dashed=1;fontFamily=Courier New;fillColor=#fff2cc;strokeColor=#d6b656;" parent="1" vertex="1">
          <mxGeometry x="390" y="-140" width="100" height="40" as="geometry" />
        </mxCell>
        <mxCell id="TUBy7_PKRpJQWW35FWpC-156" value="" style="endArrow=none;html=1;rounded=0;exitX=1;exitY=0;exitDx=0;exitDy=0;entryX=0;entryY=1;entryDx=0;entryDy=0;fontFamily=Courier New;" parent="1" source="TUBy7_PKRpJQWW35FWpC-155" target="TUBy7_PKRpJQWW35FWpC-112" edge="1">
          <mxGeometry relative="1" as="geometry">
            <mxPoint x="630" y="-100" as="sourcePoint" />
            <mxPoint x="790" y="-100" as="targetPoint" />
          </mxGeometry>
        </mxCell>
        <mxCell id="oP4CImSjk23ZV5jAeNFW-2" value="" style="endArrow=none;html=1;rounded=0;exitX=0.25;exitY=0;exitDx=0;exitDy=0;fontFamily=Courier New;" parent="1" source="EWLhzB0Xh-R49ub4O3O7-7" target="oP4CImSjk23ZV5jAeNFW-4" edge="1">
          <mxGeometry relative="1" as="geometry">
            <mxPoint x="1070" y="580" as="sourcePoint" />
            <mxPoint x="975" y="520" as="targetPoint" />
          </mxGeometry>
        </mxCell>
        <mxCell id="oP4CImSjk23ZV5jAeNFW-3" value="N" style="resizable=0;html=1;whiteSpace=wrap;align=right;verticalAlign=bottom;fontFamily=Courier New;" parent="oP4CImSjk23ZV5jAeNFW-2" connectable="0" vertex="1">
          <mxGeometry x="1" relative="1" as="geometry">
            <mxPoint x="18" y="42" as="offset" />
          </mxGeometry>
        </mxCell>
        <mxCell id="oP4CImSjk23ZV5jAeNFW-4" value="Contains_Books" style="shape=rhombus;perimeter=rhombusPerimeter;whiteSpace=wrap;html=1;align=center;fontFamily=Courier New;fillColor=#f8cecc;strokeColor=#b85450;" parent="1" vertex="1">
          <mxGeometry x="920" y="510" width="130" height="60" as="geometry" />
        </mxCell>
        <mxCell id="oP4CImSjk23ZV5jAeNFW-5" value="" style="endArrow=none;html=1;rounded=0;exitX=0.5;exitY=0;exitDx=0;exitDy=0;entryX=0.5;entryY=1;entryDx=0;entryDy=0;fontFamily=Courier New;" parent="1" source="oP4CImSjk23ZV5jAeNFW-4" target="oP4CImSjk23ZV5jAeNFW-7" edge="1">
          <mxGeometry relative="1" as="geometry">
            <mxPoint x="1070" y="480" as="sourcePoint" />
            <mxPoint x="980" y="480" as="targetPoint" />
          </mxGeometry>
        </mxCell>
        <mxCell id="oP4CImSjk23ZV5jAeNFW-6" value="M" style="resizable=0;html=1;whiteSpace=wrap;align=right;verticalAlign=bottom;fontFamily=Courier New;" parent="oP4CImSjk23ZV5jAeNFW-5" connectable="0" vertex="1">
          <mxGeometry x="1" relative="1" as="geometry">
            <mxPoint x="-55" y="30" as="offset" />
          </mxGeometry>
        </mxCell>
        <mxCell id="oP4CImSjk23ZV5jAeNFW-7" value="BOOKS_IN_WAREHOUSE" style="whiteSpace=wrap;html=1;align=center;fontFamily=Courier New;fillColor=#dae8fc;strokeColor=#6c8ebf;" parent="1" vertex="1">
          <mxGeometry x="975" y="395" width="170" height="60" as="geometry" />
        </mxCell>
        <mxCell id="oP4CImSjk23ZV5jAeNFW-8" value="Book_ISBN" style="ellipse;whiteSpace=wrap;html=1;align=center;fontStyle=0;fontFamily=Courier New;fillColor=#fff2cc;strokeColor=#d6b656;" parent="1" vertex="1">
          <mxGeometry x="945" y="335" width="100" height="40" as="geometry" />
        </mxCell>
        <mxCell id="oP4CImSjk23ZV5jAeNFW-9" value="Quantity" style="ellipse;whiteSpace=wrap;html=1;align=center;fontFamily=Courier New;fillColor=#fff2cc;strokeColor=#d6b656;" parent="1" vertex="1">
          <mxGeometry x="1075" y="335" width="100" height="40" as="geometry" />
        </mxCell>
        <mxCell id="oP4CImSjk23ZV5jAeNFW-10" value="" style="endArrow=none;html=1;rounded=0;exitX=0.561;exitY=1.046;exitDx=0;exitDy=0;exitPerimeter=0;entryX=0.5;entryY=0;entryDx=0;entryDy=0;fontFamily=Courier New;" parent="1" source="oP4CImSjk23ZV5jAeNFW-8" target="oP4CImSjk23ZV5jAeNFW-7" edge="1">
          <mxGeometry relative="1" as="geometry">
            <mxPoint x="1085" y="535" as="sourcePoint" />
            <mxPoint x="1245" y="545" as="targetPoint" />
          </mxGeometry>
        </mxCell>
        <mxCell id="oP4CImSjk23ZV5jAeNFW-11" value="" style="endArrow=none;html=1;rounded=0;exitX=0.333;exitY=1.028;exitDx=0;exitDy=0;exitPerimeter=0;entryX=0.595;entryY=-0.006;entryDx=0;entryDy=0;entryPerimeter=0;fontFamily=Courier New;" parent="1" source="oP4CImSjk23ZV5jAeNFW-9" target="oP4CImSjk23ZV5jAeNFW-7" edge="1">
          <mxGeometry relative="1" as="geometry">
            <mxPoint x="1085" y="535" as="sourcePoint" />
            <mxPoint x="1245" y="535" as="targetPoint" />
          </mxGeometry>
        </mxCell>
        <mxCell id="oP4CImSjk23ZV5jAeNFW-12" value="" style="endArrow=none;html=1;rounded=0;exitX=0.464;exitY=0.986;exitDx=0;exitDy=0;exitPerimeter=0;entryX=0.5;entryY=0;entryDx=0;entryDy=0;fontFamily=Courier New;" parent="1" source="EWLhzB0Xh-R49ub4O3O7-7" target="oP4CImSjk23ZV5jAeNFW-14" edge="1">
          <mxGeometry relative="1" as="geometry">
            <mxPoint x="1000" y="730" as="sourcePoint" />
            <mxPoint x="991.7507505748597" y="720.0122642703491" as="targetPoint" />
          </mxGeometry>
        </mxCell>
        <mxCell id="oP4CImSjk23ZV5jAeNFW-14" value="Manager_contact" style="ellipse;whiteSpace=wrap;html=1;align=center;fontFamily=Courier New;fillColor=#fff2cc;strokeColor=#d6b656;" parent="1" vertex="1">
          <mxGeometry x="920" y="720" width="120" height="50" as="geometry" />
        </mxCell>
        <mxCell id="oP4CImSjk23ZV5jAeNFW-16" value="Have_Books" style="shape=rhombus;perimeter=rhombusPerimeter;whiteSpace=wrap;html=1;align=center;fontFamily=Courier New;fillColor=#f8cecc;strokeColor=#b85450;" parent="1" vertex="1">
          <mxGeometry x="1517.5" y="550" width="120" height="60" as="geometry" />
        </mxCell>
        <mxCell id="oP4CImSjk23ZV5jAeNFW-17" value="" style="endArrow=none;html=1;rounded=0;exitX=1;exitY=0;exitDx=0;exitDy=0;entryX=0;entryY=1;entryDx=0;entryDy=0;fontFamily=Courier New;" parent="1" source="EWLhzB0Xh-R49ub4O3O7-6" target="oP4CImSjk23ZV5jAeNFW-16" edge="1">
          <mxGeometry relative="1" as="geometry">
            <mxPoint x="1160" y="540" as="sourcePoint" />
            <mxPoint x="1320" y="540" as="targetPoint" />
          </mxGeometry>
        </mxCell>
        <mxCell id="oP4CImSjk23ZV5jAeNFW-18" value="N" style="resizable=0;html=1;whiteSpace=wrap;align=right;verticalAlign=bottom;fontFamily=Courier New;" parent="oP4CImSjk23ZV5jAeNFW-17" connectable="0" vertex="1">
          <mxGeometry x="1" relative="1" as="geometry">
            <mxPoint x="-17" y="45" as="offset" />
          </mxGeometry>
        </mxCell>
        <mxCell id="oP4CImSjk23ZV5jAeNFW-21" value="BOOKS_WITH_SUPPLIERS" style="whiteSpace=wrap;html=1;align=center;fontFamily=Courier New;fillColor=#dae8fc;strokeColor=#6c8ebf;" parent="1" vertex="1">
          <mxGeometry x="1260" y="460" width="180" height="60" as="geometry" />
        </mxCell>
        <mxCell id="oP4CImSjk23ZV5jAeNFW-23" value="" style="endArrow=none;html=1;rounded=0;exitX=0;exitY=0;exitDx=0;exitDy=0;entryX=1;entryY=1;entryDx=0;entryDy=0;fontFamily=Courier New;" parent="1" source="oP4CImSjk23ZV5jAeNFW-16" target="oP4CImSjk23ZV5jAeNFW-21" edge="1">
          <mxGeometry relative="1" as="geometry">
            <mxPoint x="1160" y="540" as="sourcePoint" />
            <mxPoint x="1320" y="540" as="targetPoint" />
          </mxGeometry>
        </mxCell>
        <mxCell id="oP4CImSjk23ZV5jAeNFW-24" value="M" style="resizable=0;html=1;whiteSpace=wrap;align=right;verticalAlign=bottom;fontFamily=Courier New;" parent="oP4CImSjk23ZV5jAeNFW-23" connectable="0" vertex="1">
          <mxGeometry x="1" relative="1" as="geometry">
            <mxPoint x="55" y="20" as="offset" />
          </mxGeometry>
        </mxCell>
        <mxCell id="oP4CImSjk23ZV5jAeNFW-26" value="Book_ISBN" style="ellipse;whiteSpace=wrap;html=1;align=center;fontStyle=0;fontFamily=Courier New;fillColor=#FFE599;strokeColor=#d6b656;" parent="1" vertex="1">
          <mxGeometry x="1220" y="400" width="100" height="40" as="geometry" />
        </mxCell>
        <mxCell id="oP4CImSjk23ZV5jAeNFW-27" value="Quantity" style="ellipse;whiteSpace=wrap;html=1;align=center;fontFamily=Courier New;fillColor=#FFE599;strokeColor=#d6b656;" parent="1" vertex="1">
          <mxGeometry x="1350" y="400" width="100" height="40" as="geometry" />
        </mxCell>
        <mxCell id="oP4CImSjk23ZV5jAeNFW-28" value="" style="endArrow=none;html=1;rounded=0;exitX=0.561;exitY=1.046;exitDx=0;exitDy=0;exitPerimeter=0;entryX=0.357;entryY=-0.031;entryDx=0;entryDy=0;entryPerimeter=0;fontFamily=Courier New;" parent="1" source="oP4CImSjk23ZV5jAeNFW-26" target="oP4CImSjk23ZV5jAeNFW-21" edge="1">
          <mxGeometry relative="1" as="geometry">
            <mxPoint x="1360" y="600" as="sourcePoint" />
            <mxPoint x="1335" y="460" as="targetPoint" />
          </mxGeometry>
        </mxCell>
        <mxCell id="oP4CImSjk23ZV5jAeNFW-29" value="" style="endArrow=none;html=1;rounded=0;exitX=0.333;exitY=1.028;exitDx=0;exitDy=0;exitPerimeter=0;entryX=0.549;entryY=-0.031;entryDx=0;entryDy=0;entryPerimeter=0;fontFamily=Courier New;" parent="1" source="oP4CImSjk23ZV5jAeNFW-27" target="oP4CImSjk23ZV5jAeNFW-21" edge="1">
          <mxGeometry relative="1" as="geometry">
            <mxPoint x="1360" y="600" as="sourcePoint" />
            <mxPoint x="1351" y="460" as="targetPoint" />
          </mxGeometry>
        </mxCell>
        <mxCell id="XiyxMnLE-lKVDQLj33OW-1" value="&lt;u style=&quot;&quot;&gt;&lt;font face=&quot;Courier New&quot;&gt;Track_ID&lt;/font&gt;&lt;/u&gt;" style="ellipse;whiteSpace=wrap;html=1;align=center;fillColor=#FFD966;" parent="1" vertex="1">
          <mxGeometry x="860" y="455" width="100" height="40" as="geometry" />
        </mxCell>
        <mxCell id="XiyxMnLE-lKVDQLj33OW-2" value="" style="endArrow=none;html=1;rounded=0;exitX=0.5;exitY=0;exitDx=0;exitDy=0;entryX=0;entryY=0.5;entryDx=0;entryDy=0;" parent="1" source="XiyxMnLE-lKVDQLj33OW-1" target="oP4CImSjk23ZV5jAeNFW-7" edge="1">
          <mxGeometry relative="1" as="geometry">
            <mxPoint x="1100" y="590" as="sourcePoint" />
            <mxPoint x="1260" y="590" as="targetPoint" />
          </mxGeometry>
        </mxCell>
        <mxCell id="XiyxMnLE-lKVDQLj33OW-3" value="&lt;u style=&quot;&quot;&gt;&lt;font face=&quot;Courier New&quot;&gt;Track_ID&lt;/font&gt;&lt;/u&gt;" style="ellipse;whiteSpace=wrap;html=1;align=center;fillColor=#FFD966;" parent="1" vertex="1">
          <mxGeometry x="1295" y="544.66" width="100" height="40" as="geometry" />
        </mxCell>
        <mxCell id="XiyxMnLE-lKVDQLj33OW-4" value="" style="endArrow=none;html=1;rounded=0;exitX=0.5;exitY=0;exitDx=0;exitDy=0;entryX=0.17;entryY=1.089;entryDx=0;entryDy=0;entryPerimeter=0;" parent="1" source="XiyxMnLE-lKVDQLj33OW-3" edge="1">
          <mxGeometry relative="1" as="geometry">
            <mxPoint x="1535" y="679.66" as="sourcePoint" />
            <mxPoint x="1340.6" y="520.0000000000001" as="targetPoint" />
          </mxGeometry>
        </mxCell>
        <mxCell id="OL_T2BhjmbnH1cB78dHv-4" value="N" style="resizable=0;html=1;whiteSpace=wrap;align=right;verticalAlign=bottom;fontFamily=Courier New;" connectable="0" vertex="1" parent="1">
          <mxGeometry x="1520" y="190" as="geometry">
            <mxPoint x="-78" y="206" as="offset" />
          </mxGeometry>
        </mxCell>
        <mxCell id="OL_T2BhjmbnH1cB78dHv-5" value="&lt;h1&gt;ER DIAGRAM&lt;/h1&gt;" style="text;html=1;spacing=5;spacingTop=-20;whiteSpace=wrap;overflow=hidden;rounded=0;fontFamily=Courier New;fontStyle=5;fillColor=#fa6800;fontColor=#000000;strokeColor=#C73500;" vertex="1" parent="1">
          <mxGeometry x="1045" y="-200" width="165" height="40" as="geometry" />
        </mxCell>
      </root>
    </mxGraphModel>
  </diagram>
</mxfile>
